<svg xmlns="http://www.w3.org/2000/svg" xmlns:xlink="http://www.w3.org/1999/xlink" width="500" zoomAndPan="magnify" viewBox="0 0 375 374.999991" height="500" preserveAspectRatio="xMidYMid meet" version="1.0"><defs><g/><clipPath id="a4372334a1"><path d="M 137 170 L 260 170 L 260 208 L 137 208 Z M 137 170 " clip-rule="nonzero"/></clipPath><clipPath id="44c197e05f"><path d="M 135.835938 181.753906 L 258.246094 169.722656 L 260.886719 196.59375 L 138.476562 208.625 Z M 135.835938 181.753906 " clip-rule="nonzero"/></clipPath><clipPath id="158be9d315"><path d="M 135.835938 181.753906 L 258.246094 169.722656 L 260.886719 196.59375 L 138.476562 208.625 Z M 135.835938 181.753906 " clip-rule="nonzero"/></clipPath><clipPath id="c3a0a9a10f"><path d="M 135.835938 181.753906 L 258.246094 169.722656 L 260.886719 196.59375 L 138.476562 208.625 Z M 135.835938 181.753906 " clip-rule="nonzero"/></clipPath></defs><g fill="#000000" fill-opacity="1"><g transform="translate(72.878269, 265.930265)"><g><path d="M -2.140625 -9.414062 C -2.007812 -9.386719 -1.382812 -10.890625 -1.355469 -11.023438 C -1.277344 -11.472656 -1.484375 -11.300781 -1.566406 -11.648438 C -1.710938 -11.984375 -0.929688 -12.851562 -0.765625 -13.199219 C -0.324219 -13.921875 0.0585938 -14.632812 0.660156 -15.207031 C 0.644531 -15.019531 0.570312 -14.816406 0.480469 -14.671875 C 0.113281 -13.902344 -0.273438 -13.195312 -0.714844 -12.472656 C -0.847656 -12.253906 -1.027344 -11.964844 -0.957031 -11.671875 L -0.542969 -12.265625 C -0.367188 -12.554688 -0.144531 -12.917969 0.0898438 -13.21875 L 1.285156 -15.171875 C 1.996094 -16.328125 2.691406 -17.546875 3.542969 -18.613281 C 4.855469 -20.347656 6.324219 -22.179688 8.296875 -23.210938 C 8.578125 -22.042969 9.078125 -22.78125 9.078125 -22.78125 C 9.140625 -23.289062 9.609375 -24.945312 8.984375 -24.980469 C 8.925781 -24.964844 8.867188 -24.949219 8.820312 -24.878906 L 8.425781 -24.722656 C 6.9375 -23.992188 5.574219 -22.742188 4.371094 -21.589844 C 3.121094 -20.363281 1.988281 -18.917969 1.058594 -17.398438 C 0.972656 -17.253906 0.882812 -17.109375 0.753906 -17.140625 C 0.714844 -17.8125 1.59375 -18.515625 1.746094 -19.167969 C 1.773438 -19.300781 1.792969 -19.488281 1.761719 -19.605469 C 1.734375 -19.722656 1.546875 -19.738281 1.5625 -19.925781 C 1.566406 -20.171875 1.78125 -20.039062 1.871094 -20.183594 C 2.003906 -20.402344 2.046875 -20.476562 2.09375 -20.792969 C 2.144531 -21.359375 2.796875 -21.457031 3.109375 -21.964844 L 3.417969 -22.46875 C 3.671875 -22.960938 4.257812 -23.597656 4.175781 -24.195312 C 3.824219 -23.863281 2.71875 -23.84375 2.476562 -24.339844 C 1.527344 -23.925781 1.414062 -22.851562 0.925781 -22.054688 C -0.539062 -19.175781 -1.832031 -16.089844 -2.921875 -12.925781 C -3.132812 -12.261719 -3.550781 -10.925781 -3.628906 -10.230469 C -3.695312 -9.472656 -2.730469 -9.828125 -2.140625 -9.414062 Z M -2.140625 -9.414062 "/></g></g></g><g fill="#000000" fill-opacity="1"><g transform="translate(83.197231, 263.449866)"><g><path d="M 0.875 -9.707031 C 1.675781 -9.960938 2.363281 -10.4375 3.039062 -10.96875 C 8.015625 -14.632812 9.414062 -16.511719 10.941406 -18.109375 L 13.996094 -21.3125 C 14.246094 -21.558594 15.289062 -22.609375 14.941406 -23.019531 C 14.855469 -23.121094 14.785156 -23.167969 14.667969 -23.136719 C 14.1875 -23.085938 13.820312 -22.5625 13.464844 -22.234375 L 12.25 -21.136719 C 11.53125 -20.535156 2.484375 -10.957031 -0.335938 -11.144531 C -2.152344 -11.261719 -1.695312 -13.714844 -0.394531 -14.214844 C 1.125 -14.824219 6.863281 -18.917969 7.980469 -20.171875 C 9.007812 -21.285156 9.273438 -21.71875 9.28125 -22.707031 C 9.273438 -23.507812 8.660156 -24.777344 7.746094 -24.742188 C 6.898438 -24.664062 6.007812 -24.265625 5.308594 -23.847656 C 4.179688 -23.144531 3.183594 -22.167969 2.332031 -21.34375 C -0.132812 -19.027344 -3.390625 -14.109375 -3.066406 -11.472656 C -2.792969 -9.566406 -0.71875 -9.140625 0.875 -9.707031 Z M 1.824219 -16.535156 C 1.722656 -16.695312 2.058594 -16.839844 2.074219 -17.027344 C 2.660156 -17.414062 2.441406 -17.300781 2.585938 -17.460938 C 2.527344 -17.445312 2.472656 -17.429688 2.457031 -17.488281 L 2.308594 -17.332031 L 2.25 -17.316406 C 0.230469 -15.96875 0.0585938 -15.925781 0.839844 -17.039062 C 2.855469 -19.929688 4.148438 -20.980469 5.347656 -21.882812 C 6.695312 -22.949219 7.089844 -23.351562 7.152344 -23.613281 C 7.289062 -24.324219 7.660156 -23.550781 7.867188 -23.722656 C 7.910156 -23.796875 7.972656 -24.058594 8.085938 -23.839844 C 8.199219 -23.617188 8.226562 -23.253906 8.355469 -22.976562 C 8.410156 -22.746094 8.496094 -22.640625 8.363281 -22.425781 C 8.230469 -22.207031 7.953125 -22.078125 7.820312 -21.863281 C 7.628906 -21.632812 7.511719 -21.355469 7.304688 -21.183594 C 7.011719 -20.867188 6.574219 -20.636719 6.25 -20.4375 C 5.929688 -20.234375 5.765625 -19.886719 5.457031 -19.628906 C 5.355469 -19.542969 4.785156 -19.097656 5.058594 -18.976562 L 5.351562 -19.046875 C 5.21875 -18.832031 4.738281 -18.777344 4.953125 -18.644531 C 4.96875 -18.585938 4.222656 -18.347656 4.296875 -18.300781 C 4.484375 -18.285156 4.457031 -18.15625 4.265625 -18.171875 C 4.078125 -18.1875 2.804688 -17.328125 2.875 -17.28125 C 2.976562 -17.121094 2.675781 -17.355469 2.628906 -17.035156 C 2.582031 -16.964844 2.597656 -16.90625 2.523438 -16.949219 C 2.511719 -17.007812 2.128906 -16.792969 2.160156 -16.675781 C 2.230469 -16.632812 2.144531 -16.734375 1.824219 -16.535156 Z M 5.671875 -19.25 C 5.261719 -18.902344 5.253906 -19.457031 5.441406 -19.441406 C 5.574219 -19.410156 5.265625 -19.152344 5.585938 -19.351562 C 5.6875 -19.4375 5.792969 -19.523438 5.804688 -19.464844 C 5.761719 -19.394531 6.023438 -19.582031 6.097656 -19.535156 C 6.109375 -19.476562 6.109375 -19.476562 6.054688 -19.464844 C 5.980469 -19.507812 5.9375 -19.4375 6.007812 -19.390625 C 6.050781 -19.214844 5.9375 -19.4375 5.671875 -19.25 Z M 2.875 -17.035156 C 2.917969 -17.105469 5.097656 -18.554688 5.113281 -18.496094 C 5.214844 -18.335938 2.796875 -16.585938 2.875 -17.035156 Z M 2.875 -17.035156 "/></g></g></g><g fill="#000000" fill-opacity="1"><g transform="translate(96.780953, 260.184707)"><g><path d="M 7.65625 -3.8125 C 8.472656 -4.011719 5.164062 -4.695312 9.003906 -13.082031 C 9.300781 -13.644531 9.816406 -14.324219 9.96875 -14.976562 C 9.953125 -15.035156 13.066406 -24.664062 17.640625 -31.808594 C 18.628906 -33.339844 17.417969 -32.742188 16.800781 -34.011719 C 16.761719 -34.1875 16.425781 -34.292969 16.132812 -33.726562 C 14.226562 -30.617188 11.660156 -25.128906 11.308594 -25.046875 C 11.148438 -24.945312 10.398438 -23.714844 10.441406 -23.789062 C 9.804688 -24.128906 9.417969 -24.714844 7.933594 -24.726562 C 3.671875 -24.75 -2.167969 -15.945312 -3.347656 -12.394531 C -4.421875 -9.421875 -2.765625 -6.367188 0.800781 -9.503906 C 1.925781 -10.453125 7.5 -17.035156 7.941406 -17.757812 C 8.53125 -18.640625 8.554688 -18.03125 7.976562 -16.84375 C 7.710938 -16.410156 4.355469 -8.816406 5.476562 -5.695312 C 5.730469 -4.894531 6.605469 -3.5625 7.65625 -3.8125 Z M -1.539062 -9.992188 C -2.382812 -9.910156 -2.273438 -10.738281 -2.152344 -11.261719 C -2.078125 -11.464844 -1.953125 -12.484375 -1.660156 -12.550781 C -1.601562 -12.566406 -1.554688 -12.886719 -1.464844 -13.277344 C -1.382812 -14.222656 -1.257812 -13.699219 -0.664062 -14.828125 C 1.023438 -18.316406 8.195312 -26.453125 9.140625 -23.042969 C 9.4375 -22.066406 9.222656 -22.445312 7.910156 -20.710938 C 5.792969 -17.984375 3.542969 -15.285156 1.277344 -12.640625 C 0.511719 -11.71875 -0.8125 -10.042969 -1.539062 -9.992188 Z M 10.820312 -24.003906 C 11.027344 -24.421875 11.363281 -24.566406 11.171875 -24.085938 C 10.964844 -23.667969 10.613281 -23.582031 10.820312 -24.003906 Z M 8.789062 -21.417969 C 9.042969 -21.910156 9.640625 -22.238281 9.199219 -21.515625 C 8.800781 -20.863281 8.507812 -20.792969 8.789062 -21.417969 Z M 8.402344 -20.460938 C 8.109375 -19.894531 8.101562 -20.945312 8.449219 -20.78125 C 8.507812 -20.792969 8.492188 -20.605469 8.402344 -20.460938 Z M 5.808594 -8.425781 C 5.027344 -8.855469 9.96875 -21.640625 10.335938 -20.371094 C 10.378906 -20.195312 7.171875 -13.011719 7.359375 -12.746094 C 7.371094 -12.6875 7.296875 -12.484375 7.152344 -12.328125 C 6.917969 -12.023438 6.917969 -12.023438 7.207031 -12.09375 C 7.441406 -12.148438 7.527344 -12.046875 7.609375 -11.699219 C 7.738281 -11.171875 7.460938 -11.042969 7.277344 -11.554688 C 7.191406 -11.90625 7.191406 -11.90625 6.882812 -11.398438 C 6.421875 -10.488281 6.167969 -8.207031 5.808594 -8.425781 Z M 10.671875 -18.722656 C 10.382812 -18.902344 10.957031 -19.59375 11.054688 -19.1875 C 11.109375 -18.953125 10.816406 -18.636719 10.671875 -18.722656 Z M 9.300781 -15.1875 C 9.074219 -14.085938 8.53125 -15.3125 9.101562 -15.507812 C 9.390625 -15.578125 9.40625 -15.519531 9.300781 -15.1875 Z M 8.285156 -13.769531 C 8.253906 -13.394531 7.960938 -13.570312 8.082031 -13.847656 C 8.1875 -14.179688 8.316406 -14.148438 8.285156 -13.769531 Z M 7.589844 -12.554688 C 7.535156 -12.789062 7.882812 -12.875 7.910156 -12.757812 C 7.941406 -12.640625 7.660156 -12.265625 7.589844 -12.554688 Z M 6.871094 -10.410156 C 7.007812 -10.875 7.664062 -11.21875 7.648438 -10.78125 C 7.644531 -10.535156 6.542969 -9.21875 6.871094 -10.410156 Z M 7.070312 -9.59375 C 6.9375 -9.375 6.3125 -9.410156 6.820312 -9.59375 C 6.980469 -9.695312 7.113281 -9.664062 7.070312 -9.59375 Z M 7.070312 -9.59375 "/></g></g></g><g fill="#000000" fill-opacity="1"><g transform="translate(112.521747, 256.401046)"><g><path d="M 4.707031 -26.601562 C 4.839844 -26.820312 5.132812 -26.890625 5.207031 -27.09375 C 5.472656 -27.527344 5.300781 -27.730469 5.925781 -27.945312 C 6.320312 -28.101562 6.816406 -28.097656 7.082031 -28.53125 C 7.242188 -28.878906 7.191406 -29.359375 6.886719 -29.59375 C 6.425781 -29.976562 5.304688 -29.769531 4.90625 -29.363281 C 4.363281 -28.800781 4.121094 -27.757812 4.304688 -27 C 4.472656 -26.300781 4.472656 -26.300781 4.707031 -26.601562 Z M 0.0078125 -10.488281 L 5.332031 -15.527344 C 7.003906 -17.039062 8.519531 -18.699219 10.03125 -20.359375 C 10.28125 -20.605469 11.382812 -21.671875 11.035156 -22.082031 C 10.949219 -22.183594 10.878906 -22.226562 10.761719 -22.199219 C 10.089844 -22.160156 9.515625 -21.222656 8.976562 -20.90625 C 8.054688 -20.375 7.332031 -19.523438 6.585938 -18.789062 C 4.792969 -17.003906 0.554688 -12.839844 -1.066406 -12.140625 C -1.367188 -12.871094 0.828125 -15.800781 0.480469 -16.214844 C 0.394531 -16.316406 0.46875 -16.519531 0.574219 -16.605469 C 0.953125 -16.820312 1.53125 -18.007812 1.460938 -18.296875 C 1.417969 -18.472656 1.582031 -18.820312 1.757812 -19.109375 C 2.203125 -19.832031 1.796875 -19.984375 2.261719 -20.09375 C 2.613281 -20.179688 3.058594 -21.148438 2.929688 -21.425781 C 2.871094 -21.660156 2.757812 -21.878906 2.773438 -22.066406 C 2.820312 -22.386719 3.183594 -22.414062 3.242188 -22.179688 C 3.3125 -22.136719 3.285156 -22.003906 3.296875 -21.945312 C 3.382812 -21.84375 3.601562 -21.957031 3.707031 -22.046875 C 4.984375 -23.648438 3.839844 -24.050781 4.511719 -24.335938 C 5.183594 -24.621094 5.097656 -24.96875 4.460938 -25.3125 C 3.609375 -25.785156 3.097656 -25.597656 2.476562 -24.339844 C 1.292969 -22.082031 -0.976562 -17.402344 -2.671875 -13.417969 C -3.339844 -11.839844 -3.371094 -11.710938 -3.203125 -10.761719 C -2.867188 -9.363281 -1.8125 -8.816406 0.0078125 -10.488281 Z M 0.0078125 -10.488281 "/></g></g></g><g fill="#000000" fill-opacity="1"><g transform="translate(122.141122, 254.088809)"><g><path d="M 13.03125 -22.5 C 12.945312 -22.601562 12.816406 -22.632812 12.757812 -22.617188 C 12.175781 -22.476562 11.601562 -22.03125 11.277344 -21.582031 C 10.910156 -21.0625 10.441406 -20.703125 9.988281 -20.285156 C 9.226562 -19.609375 8.433594 -18.800781 7.582031 -18.226562 C 7.160156 -17.941406 6.777344 -17.726562 6.328125 -17.554688 L 5.464844 -17.289062 C 5.472656 -18.027344 5.117188 -18.746094 4.433594 -19.011719 C 3.753906 -19.28125 2.574219 -19.304688 2.464844 -19.773438 C 2.351562 -20.238281 2.71875 -20.757812 2.867188 -20.917969 C 4.324219 -22.808594 5.613281 -23.859375 8.019531 -24.625 C 8.53125 -24.808594 9.417969 -24.960938 9.957031 -24.78125 C 10.148438 -25.011719 10.046875 -25.421875 9.730469 -25.464844 L 9.46875 -25.527344 L 9.308594 -25.675781 C 8.949219 -25.894531 8.511719 -25.914062 8.160156 -25.828125 C 5.480469 -25.183594 4.160156 -24.003906 1.957031 -21.871094 C 1.355469 -21.296875 0.796875 -20.542969 0.425781 -19.777344 C 0.128906 -19.210938 0.0351562 -18.324219 0.746094 -17.941406 C 1.382812 -17.601562 2.257812 -17.8125 2.921875 -17.601562 C 3.054688 -17.570312 3.183594 -17.539062 3.199219 -17.484375 C 3.429688 -17.292969 3.4375 -16.492188 3.449219 -16.433594 C 2.746094 -15.769531 1.605469 -14.878906 1.511719 -14.488281 C 1.484375 -14.355469 1.4375 -14.285156 1.351562 -14.386719 C 1.105469 -14.636719 -5.992188 -9.539062 -3.332031 -7.710938 C -2.597656 -7.207031 -2.21875 -7.175781 -1.3125 -7.765625 C -0.242188 -8.453125 0.925781 -8.980469 1.964844 -9.785156 C 2.902344 -10.503906 4.746094 -13.351562 5.207031 -14.511719 C 5.371094 -14.859375 5.476562 -15.191406 5.523438 -15.511719 C 5.773438 -15.757812 6.328125 -16.015625 6.632812 -16.273438 C 6.882812 -16.519531 7.234375 -16.601562 7.542969 -16.863281 L 8.683594 -17.753906 C 9.886719 -18.660156 10.925781 -19.710938 12.027344 -20.777344 C 12.277344 -21.023438 13.378906 -22.089844 13.03125 -22.5 Z M -1.820312 -9.367188 C -4.109375 -8.632812 1.375 -13.527344 3.636719 -14.378906 L 3.941406 -14.390625 C 3.933594 -13.402344 -0.0976562 -9.90625 -1.820312 -9.367188 Z M -0.410156 -9.398438 C 0.703125 -10.160156 1.082031 -10.375 1.140625 -10.140625 C 1.222656 -9.792969 -2.792969 -7.777344 -0.410156 -9.398438 Z M -0.410156 -9.398438 "/></g></g></g><g fill="#000000" fill-opacity="1"><g transform="translate(133.742666, 251.300112)"><g><path d="M 14.417969 -22.894531 C 14.332031 -22.996094 14.257812 -23.039062 14.144531 -23.011719 C 13.605469 -22.945312 12.984375 -22.179688 12.589844 -21.773438 L 10.667969 -20.019531 C 9.363281 -18.78125 8.101562 -17.613281 6.855469 -16.386719 C 4.917969 -14.441406 2.789062 -12.511719 0.335938 -11.429688 C -1.167969 -10.757812 -1.746094 -11.113281 -0.976562 -12.53125 C -0.679688 -13.097656 -0.488281 -13.574219 -0.394531 -14.214844 C -0.539062 -14.300781 -0.683594 -14.390625 -0.726562 -14.566406 C -0.710938 -14.507812 -0.695312 -14.695312 -0.492188 -14.867188 C -0.0234375 -15.226562 -0.484375 -15.609375 -0.160156 -15.8125 C 0 -15.910156 0.203125 -15.835938 0.289062 -15.734375 C 0.460938 -15.53125 0.359375 -15.441406 0.503906 -15.601562 C 1.09375 -16.238281 0.644531 -16.3125 1.144531 -17.050781 C 3.796875 -20.894531 3.777344 -20.210938 4.089844 -20.964844 C 4.164062 -21.167969 4.0625 -21.328125 4.210938 -21.488281 C 4.445312 -21.792969 4.457031 -21.734375 4.515625 -21.5 C 4.527344 -21.441406 4.644531 -21.46875 4.691406 -21.542969 C 5.175781 -22.335938 5.921875 -22.824219 6.609375 -23.296875 C 7.078125 -23.65625 7.652344 -24.351562 8.277344 -24.070312 C 8.492188 -23.9375 8.503906 -23.628906 8.488281 -23.441406 C 8.429688 -23.179688 8.308594 -22.90625 8.234375 -22.703125 C 8.085938 -22.296875 7.878906 -21.875 7.644531 -21.574219 C 7.40625 -21.269531 7.230469 -21.226562 6.925781 -20.96875 C 6.238281 -20.496094 6.960938 -20.050781 6.519531 -19.574219 C 6.417969 -19.488281 5.625 -18.929688 6.074219 -18.605469 C 6.144531 -18.5625 6.335938 -18.546875 6.453125 -18.574219 C 7.035156 -18.714844 7.402344 -19.234375 7.785156 -19.695312 C 8.886719 -21.007812 10.339844 -22.40625 10.007812 -24.300781 C 9.855469 -24.941406 9.453125 -25.585938 8.828125 -25.621094 C 8.640625 -25.636719 8.40625 -25.582031 8.230469 -25.539062 C 6.21875 -24.929688 4.621094 -23.375 3.179688 -21.917969 C 1.625 -20.433594 0.273438 -18.875 -0.835938 -17.070312 C -1.453125 -16.054688 -2 -15 -2.417969 -13.910156 C -2.863281 -12.941406 -3.371094 -11.710938 -3.175781 -10.644531 C -3.050781 -9.875 -2.199219 -9.402344 -1.527344 -9.4375 C -0.304688 -9.484375 0.832031 -9.882812 1.855469 -10.5 C 2.453125 -10.828125 3.117188 -11.664062 3.816406 -11.832031 C 4.109375 -11.902344 4.605469 -12.394531 4.8125 -12.566406 C 10.785156 -18.257812 11.003906 -18.617188 13.472656 -21.1875 C 13.722656 -21.429688 14.761719 -22.484375 14.417969 -22.894531 Z M 4.4375 -13.09375 C 4.5 -13.355469 4.691406 -13.585938 4.96875 -13.714844 L 4.894531 -13.511719 C 4.9375 -13.582031 5.011719 -13.539062 5.125 -13.566406 C 4.949219 -13.277344 4.746094 -13.105469 4.4375 -13.09375 Z M 1.878906 -11.675781 C 1.792969 -11.78125 1.882812 -11.925781 1.925781 -11.996094 C 2.03125 -12.082031 2.160156 -12.050781 2.335938 -12.09375 C 2.320312 -11.90625 2.128906 -11.675781 1.878906 -11.675781 Z M 1.453125 -11.140625 C 1.351562 -11.054688 1.164062 -11.074219 0.988281 -11.03125 C 0.769531 -10.917969 0.578125 -10.683594 0.316406 -10.746094 C 0.214844 -10.90625 0.363281 -11.066406 0.464844 -11.152344 C 0.785156 -11.351562 1.121094 -11.496094 1.457031 -11.636719 L 1.414062 -11.566406 L 1.542969 -11.535156 C 1.6875 -11.445312 1.613281 -11.242188 1.453125 -11.140625 Z M 1.453125 -11.140625 "/></g></g></g><g fill="#000000" fill-opacity="1"><g transform="translate(147.384689, 248.020939)"><g><path d="M 0.300781 -9.015625 C 2.566406 -10.363281 4.03125 -14.539062 4.679688 -15.679688 C 5.304688 -15.644531 6.089844 -15.710938 6.777344 -15.9375 C 9.15625 -16.816406 11.171875 -19.214844 12.886719 -21.046875 C 13.136719 -21.289062 14.238281 -22.355469 13.894531 -22.765625 C 13.808594 -22.871094 13.675781 -22.898438 13.617188 -22.886719 C 13.136719 -22.832031 12.460938 -22.054688 12.257812 -21.878906 C 10.746094 -20.714844 8.300781 -18.585938 6.125 -17.878906 C 6.410156 -18.746094 6.550781 -19.707031 6.804688 -20.445312 C 7.132812 -21.386719 7.757812 -22.894531 7.15625 -23.859375 C 6.851562 -24.34375 5.753906 -24.820312 5.34375 -24.722656 C 3.929688 -24.195312 3.878906 -28.5 -1.761719 -15.796875 C -3.394531 -12.074219 -2.769531 -7.167969 0.300781 -9.015625 Z M 3.828125 -17.941406 C 3.464844 -18.164062 3.136719 -18.515625 3.039062 -18.925781 C 4.125 -21.589844 6.640625 -24.722656 5.269531 -21.1875 C 4.390625 -18.941406 4.195312 -18.214844 3.828125 -17.941406 Z M 7.167969 -22.015625 C 7.046875 -21.738281 6.976562 -21.78125 6.933594 -21.957031 C 6.878906 -22.191406 7.300781 -22.230469 7.167969 -22.015625 Z M 6.40625 -19.796875 C 6.359375 -19.722656 5.75 -19.699219 5.75 -19.699219 C 5.734375 -19.757812 5.882812 -19.917969 6.085938 -20.089844 C 6.394531 -20.347656 6.453125 -20.363281 6.453125 -20.113281 Z M -0.566406 -11.089844 C -1.488281 -10.804688 1.035156 -17.765625 1.480469 -17.441406 C 1.578125 -17.03125 1.78125 -16.710938 2.285156 -16.398438 C 2.773438 -15.652344 2.761719 -15.710938 2.375 -15.003906 C 1.945312 -14.222656 0.21875 -11.402344 -0.566406 -11.089844 Z M 5.210938 -17.84375 C 5.136719 -17.886719 4.964844 -18.339844 5.332031 -18.363281 C 5.738281 -18.464844 5.265625 -17.855469 5.210938 -17.84375 Z M 4.824219 -17.132812 C 4.691406 -16.917969 4.632812 -16.902344 4.460938 -17.109375 C 4.347656 -17.328125 4.941406 -17.410156 4.824219 -17.132812 Z M 3.867188 -15.980469 C 3.71875 -15.574219 3.53125 -15.589844 3.664062 -16.054688 C 3.710938 -16.371094 4.046875 -16.515625 3.867188 -15.980469 Z M 2.550781 -13.257812 C 2.066406 -12.953125 1.921875 -13.042969 2.085938 -13.636719 C 2.421875 -15.324219 3.488281 -14.222656 2.960938 -15.144531 C 2.816406 -15.480469 2.804688 -15.539062 3.109375 -15.550781 C 3.648438 -15.617188 4.066406 -15.410156 3.730469 -15.265625 C 3.25 -14.964844 3.265625 -13.613281 2.683594 -13.71875 C 2.378906 -13.707031 2.378906 -13.707031 2.539062 -13.5625 C 2.695312 -13.414062 2.710938 -13.355469 2.550781 -13.257812 Z M -0.136719 -10.574219 C -0.253906 -10.546875 -0.164062 -10.691406 -0.03125 -10.910156 C 0.558594 -11.789062 0.34375 -10.628906 -0.136719 -10.574219 Z M 1.296875 -11.289062 C 1.121094 -11.246094 0.988281 -11.277344 1.035156 -11.351562 C 1.121094 -11.496094 1.703125 -11.386719 1.296875 -11.289062 Z M 0.648438 -10.394531 C 0.367188 -10.019531 0.207031 -10.164062 0.417969 -10.585938 C 0.636719 -10.945312 0.855469 -10.8125 0.648438 -10.394531 Z M 0.648438 -10.394531 "/></g></g></g><g fill="#000000" fill-opacity="1"><g transform="translate(161.026712, 244.741766)"><g><path d="M -1.425781 -9.523438 C -0.621094 -10.273438 -0.0429688 -11.214844 0.546875 -12.097656 C 3.6875 -16.984375 6.507812 -21.421875 11.4375 -24.765625 C 12.652344 -25.613281 13.140625 -26.164062 12.441406 -26.242188 C 12.253906 -26.257812 12.3125 -26.273438 12.28125 -26.390625 C 12.253906 -26.503906 11.789062 -26.394531 11.292969 -26.152344 C 9.523438 -25.292969 8.921875 -24.71875 7.339844 -23.351562 C 6.722656 -22.832031 3.050781 -18.867188 3.078125 -18.75 C 3.0625 -18.558594 0.3125 -15.371094 0.226562 -15.472656 C 0.15625 -15.519531 0.144531 -15.824219 0.261719 -16.097656 L 0.925781 -18.726562 C 1.152344 -19.582031 1.726562 -20.519531 1.589844 -21.351562 C 1.519531 -21.644531 1.449219 -21.933594 1.4375 -22.242188 C 1.5 -22.5 1.605469 -22.835938 1.894531 -22.90625 C 1.75 -22.992188 1.707031 -23.167969 1.738281 -23.300781 C 1.769531 -23.429688 1.914062 -23.589844 2.019531 -23.675781 C 2.621094 -24.25 3.332031 -24.359375 2.875 -25.238281 C 2.488281 -25.824219 1.664062 -26.179688 1.132812 -25.558594 C 0.855469 -25.183594 0.480469 -24.167969 0.539062 -23.9375 C 0.550781 -23.878906 0.445312 -23.542969 0.328125 -23.269531 C 0.207031 -22.992188 -0.210938 -21.410156 -0.679688 -19.757812 L -2.140625 -14.289062 C -2.363281 -13.429688 -2.589844 -12.574219 -2.6875 -11.6875 C -2.84375 -10.542969 -2.027344 -10.492188 -1.425781 -9.523438 Z M 10.257812 -24.546875 C 10.199219 -24.53125 10.171875 -24.648438 10.160156 -24.707031 C 10.128906 -24.824219 10.4375 -25.082031 10.714844 -25.210938 C 11.429688 -25.566406 11.605469 -25.609375 11.589844 -25.421875 C 11.632812 -25.246094 10.507812 -24.542969 10.257812 -24.546875 Z M 6.289062 -21.308594 C 6.230469 -21.542969 9.34375 -24.511719 9.648438 -24.523438 C 9.707031 -24.535156 9.792969 -24.433594 9.835938 -24.257812 C 9.816406 -24.070312 8.761719 -23.074219 7.765625 -22.34375 L 6.828125 -21.625 C 6.519531 -21.363281 6.242188 -21.238281 6.289062 -21.308594 Z M 6.289062 -21.308594 "/></g></g></g><g fill="#000000" fill-opacity="1"><g transform="translate(171.345674, 242.261367)"><g><path d="M 0.875 -9.707031 C 1.675781 -9.960938 2.363281 -10.4375 3.039062 -10.96875 C 8.015625 -14.632812 9.414062 -16.511719 10.941406 -18.109375 L 13.996094 -21.3125 C 14.246094 -21.558594 15.289062 -22.609375 14.941406 -23.019531 C 14.855469 -23.121094 14.785156 -23.167969 14.667969 -23.136719 C 14.1875 -23.085938 13.820312 -22.5625 13.464844 -22.234375 L 12.25 -21.136719 C 11.53125 -20.535156 2.484375 -10.957031 -0.335938 -11.144531 C -2.152344 -11.261719 -1.695312 -13.714844 -0.394531 -14.214844 C 1.125 -14.824219 6.863281 -18.917969 7.980469 -20.171875 C 9.007812 -21.285156 9.273438 -21.71875 9.28125 -22.707031 C 9.273438 -23.507812 8.660156 -24.777344 7.746094 -24.742188 C 6.898438 -24.664062 6.007812 -24.265625 5.308594 -23.847656 C 4.179688 -23.144531 3.183594 -22.167969 2.332031 -21.34375 C -0.132812 -19.027344 -3.390625 -14.109375 -3.066406 -11.472656 C -2.792969 -9.566406 -0.71875 -9.140625 0.875 -9.707031 Z M 1.824219 -16.535156 C 1.722656 -16.695312 2.058594 -16.839844 2.074219 -17.027344 C 2.660156 -17.414062 2.441406 -17.300781 2.585938 -17.460938 C 2.527344 -17.445312 2.472656 -17.429688 2.457031 -17.488281 L 2.308594 -17.332031 L 2.25 -17.316406 C 0.230469 -15.96875 0.0585938 -15.925781 0.839844 -17.039062 C 2.855469 -19.929688 4.148438 -20.980469 5.347656 -21.882812 C 6.695312 -22.949219 7.089844 -23.351562 7.152344 -23.613281 C 7.289062 -24.324219 7.660156 -23.550781 7.867188 -23.722656 C 7.910156 -23.796875 7.972656 -24.058594 8.085938 -23.839844 C 8.199219 -23.617188 8.226562 -23.253906 8.355469 -22.976562 C 8.410156 -22.746094 8.496094 -22.640625 8.363281 -22.425781 C 8.230469 -22.207031 7.953125 -22.078125 7.820312 -21.863281 C 7.628906 -21.632812 7.511719 -21.355469 7.304688 -21.183594 C 7.011719 -20.867188 6.574219 -20.636719 6.25 -20.4375 C 5.929688 -20.234375 5.765625 -19.886719 5.457031 -19.628906 C 5.355469 -19.542969 4.785156 -19.097656 5.058594 -18.976562 L 5.351562 -19.046875 C 5.21875 -18.832031 4.738281 -18.777344 4.953125 -18.644531 C 4.96875 -18.585938 4.222656 -18.347656 4.296875 -18.300781 C 4.484375 -18.285156 4.457031 -18.15625 4.265625 -18.171875 C 4.078125 -18.1875 2.804688 -17.328125 2.875 -17.28125 C 2.976562 -17.121094 2.675781 -17.355469 2.628906 -17.035156 C 2.582031 -16.964844 2.597656 -16.90625 2.523438 -16.949219 C 2.511719 -17.007812 2.128906 -16.792969 2.160156 -16.675781 C 2.230469 -16.632812 2.144531 -16.734375 1.824219 -16.535156 Z M 5.671875 -19.25 C 5.261719 -18.902344 5.253906 -19.457031 5.441406 -19.441406 C 5.574219 -19.410156 5.265625 -19.152344 5.585938 -19.351562 C 5.6875 -19.4375 5.792969 -19.523438 5.804688 -19.464844 C 5.761719 -19.394531 6.023438 -19.582031 6.097656 -19.535156 C 6.109375 -19.476562 6.109375 -19.476562 6.054688 -19.464844 C 5.980469 -19.507812 5.9375 -19.4375 6.007812 -19.390625 C 6.050781 -19.214844 5.9375 -19.4375 5.671875 -19.25 Z M 2.875 -17.035156 C 2.917969 -17.105469 5.097656 -18.554688 5.113281 -18.496094 C 5.214844 -18.335938 2.796875 -16.585938 2.875 -17.035156 Z M 2.875 -17.035156 "/></g></g></g><g fill="#000000" fill-opacity="1"><g transform="translate(184.929396, 238.996208)"><g><path d="M -2.140625 -9.414062 C -2.007812 -9.386719 -1.382812 -10.890625 -1.355469 -11.023438 C -1.277344 -11.472656 -1.484375 -11.300781 -1.566406 -11.648438 C -1.710938 -11.984375 -0.929688 -12.851562 -0.765625 -13.199219 C -0.324219 -13.921875 0.0585938 -14.632812 0.660156 -15.207031 C 0.644531 -15.019531 0.570312 -14.816406 0.480469 -14.671875 C 0.113281 -13.902344 -0.273438 -13.195312 -0.714844 -12.472656 C -0.847656 -12.253906 -1.027344 -11.964844 -0.957031 -11.671875 L -0.542969 -12.265625 C -0.367188 -12.554688 -0.144531 -12.917969 0.0898438 -13.21875 L 1.285156 -15.171875 C 1.996094 -16.328125 2.691406 -17.546875 3.542969 -18.613281 C 4.855469 -20.347656 6.324219 -22.179688 8.296875 -23.210938 C 8.578125 -22.042969 9.078125 -22.78125 9.078125 -22.78125 C 9.140625 -23.289062 9.609375 -24.945312 8.984375 -24.980469 C 8.925781 -24.964844 8.867188 -24.949219 8.820312 -24.878906 L 8.425781 -24.722656 C 6.9375 -23.992188 5.574219 -22.742188 4.371094 -21.589844 C 3.121094 -20.363281 1.988281 -18.917969 1.058594 -17.398438 C 0.972656 -17.253906 0.882812 -17.109375 0.753906 -17.140625 C 0.714844 -17.8125 1.59375 -18.515625 1.746094 -19.167969 C 1.773438 -19.300781 1.792969 -19.488281 1.761719 -19.605469 C 1.734375 -19.722656 1.546875 -19.738281 1.5625 -19.925781 C 1.566406 -20.171875 1.78125 -20.039062 1.871094 -20.183594 C 2.003906 -20.402344 2.046875 -20.476562 2.09375 -20.792969 C 2.144531 -21.359375 2.796875 -21.457031 3.109375 -21.964844 L 3.417969 -22.46875 C 3.671875 -22.960938 4.257812 -23.597656 4.175781 -24.195312 C 3.824219 -23.863281 2.71875 -23.84375 2.476562 -24.339844 C 1.527344 -23.925781 1.414062 -22.851562 0.925781 -22.054688 C -0.539062 -19.175781 -1.832031 -16.089844 -2.921875 -12.925781 C -3.132812 -12.261719 -3.550781 -10.925781 -3.628906 -10.230469 C -3.695312 -9.472656 -2.730469 -9.828125 -2.140625 -9.414062 Z M -2.140625 -9.414062 "/></g></g></g><g fill="#000000" fill-opacity="1"><g transform="translate(195.248358, 236.515808)"><g><path d="M 4.707031 -26.601562 C 4.839844 -26.820312 5.132812 -26.890625 5.207031 -27.09375 C 5.472656 -27.527344 5.300781 -27.730469 5.925781 -27.945312 C 6.320312 -28.101562 6.816406 -28.097656 7.082031 -28.53125 C 7.242188 -28.878906 7.191406 -29.359375 6.886719 -29.59375 C 6.425781 -29.976562 5.304688 -29.769531 4.90625 -29.363281 C 4.363281 -28.800781 4.121094 -27.757812 4.304688 -27 C 4.472656 -26.300781 4.472656 -26.300781 4.707031 -26.601562 Z M 0.0078125 -10.488281 L 5.332031 -15.527344 C 7.003906 -17.039062 8.519531 -18.699219 10.03125 -20.359375 C 10.28125 -20.605469 11.382812 -21.671875 11.035156 -22.082031 C 10.949219 -22.183594 10.878906 -22.226562 10.761719 -22.199219 C 10.089844 -22.160156 9.515625 -21.222656 8.976562 -20.90625 C 8.054688 -20.375 7.332031 -19.523438 6.585938 -18.789062 C 4.792969 -17.003906 0.554688 -12.839844 -1.066406 -12.140625 C -1.367188 -12.871094 0.828125 -15.800781 0.480469 -16.214844 C 0.394531 -16.316406 0.46875 -16.519531 0.574219 -16.605469 C 0.953125 -16.820312 1.53125 -18.007812 1.460938 -18.296875 C 1.417969 -18.472656 1.582031 -18.820312 1.757812 -19.109375 C 2.203125 -19.832031 1.796875 -19.984375 2.261719 -20.09375 C 2.613281 -20.179688 3.058594 -21.148438 2.929688 -21.425781 C 2.871094 -21.660156 2.757812 -21.878906 2.773438 -22.066406 C 2.820312 -22.386719 3.183594 -22.414062 3.242188 -22.179688 C 3.3125 -22.136719 3.285156 -22.003906 3.296875 -21.945312 C 3.382812 -21.84375 3.601562 -21.957031 3.707031 -22.046875 C 4.984375 -23.648438 3.839844 -24.050781 4.511719 -24.335938 C 5.183594 -24.621094 5.097656 -24.96875 4.460938 -25.3125 C 3.609375 -25.785156 3.097656 -25.597656 2.476562 -24.339844 C 1.292969 -22.082031 -0.976562 -17.402344 -2.671875 -13.417969 C -3.339844 -11.839844 -3.371094 -11.710938 -3.203125 -10.761719 C -2.867188 -9.363281 -1.8125 -8.816406 0.0078125 -10.488281 Z M 0.0078125 -10.488281 "/></g></g></g><g fill="#000000" fill-opacity="1"><g transform="translate(204.867733, 234.203571)"><g><path d="M 9.28125 -8.089844 C 9.324219 -8.164062 9.429688 -8.496094 9.476562 -8.816406 C 9.730469 -11.097656 12.125 -17.039062 12.316406 -17.269531 C 12.40625 -17.414062 12.671875 -18.09375 12.882812 -18.761719 C 13.421875 -20.617188 14.128906 -21.28125 14.722656 -22.90625 C 14.976562 -23.644531 15.007812 -23.773438 14.746094 -23.835938 C 14.601562 -23.925781 14.53125 -23.96875 14.644531 -23.996094 C 14.761719 -24.023438 14.867188 -24.359375 14.898438 -24.734375 C 14.980469 -25.679688 15.609375 -26.140625 14.511719 -26.863281 C 14.355469 -27.011719 14.324219 -27.125 14.472656 -27.285156 C 14.765625 -27.601562 14.375 -27.691406 13.570312 -27.4375 C 10.378906 -26.363281 7.539062 -22.78125 5.480469 -20.3125 C 4.480469 -19.085938 3.246094 -18.050781 2.390625 -16.734375 C 2.15625 -16.429688 1.625 -15.5625 1.355469 -16.175781 C 1.226562 -16.453125 1.683594 -17.117188 1.800781 -17.394531 C 2.203125 -18.292969 2.851562 -19.1875 3.0625 -20.101562 C 3.636719 -22.582031 5.207031 -24.007812 4.660156 -24.496094 C 4.394531 -24.0625 3.636719 -24.125 3.410156 -24.5625 C 2.515625 -24.164062 2.347656 -23.074219 1.917969 -22.292969 C 0.394531 -19.398438 -0.898438 -16.3125 -1.988281 -13.152344 C -2.230469 -12.355469 -3 -10.9375 -2.308594 -10.113281 C -2.050781 -9.808594 -0.265625 -9.0625 -0.171875 -9.703125 C -0.128906 -10.023438 -0.273438 -10.109375 0.0976562 -10.632812 C 1.378906 -12.480469 2.542969 -14.304688 4.042969 -16.019531 C 5.070312 -17.132812 6.53125 -19.269531 6.824219 -19.339844 C 6.9375 -19.367188 7.027344 -19.511719 7.015625 -19.570312 C 7 -19.628906 7.234375 -19.933594 7.5 -20.121094 C 7.804688 -20.378906 8.054688 -20.625 8.027344 -20.742188 C 7.957031 -20.785156 8.042969 -20.929688 8.160156 -20.957031 C 8.335938 -21 8.6875 -21.332031 8.910156 -21.691406 C 9.71875 -22.6875 9.917969 -22.367188 9.90625 -22.671875 C 9.980469 -22.875 11.171875 -24.085938 11.460938 -24.15625 C 11.578125 -24.183594 11.769531 -24.414062 11.902344 -24.632812 C 12.214844 -25.136719 12.195312 -24.703125 12.707031 -25.132812 C 14.980469 -26.976562 7.429688 -15.539062 7.667969 -9.921875 C 7.6875 -8.816406 7.699219 -8.757812 8.0625 -8.539062 C 8.265625 -8.460938 8.425781 -8.316406 8.4375 -8.257812 C 8.378906 -7.996094 9.089844 -7.859375 9.28125 -8.089844 Z M 8.347656 -22.484375 C 9.230469 -23.433594 12.078125 -26.464844 13.507812 -26.929688 C 14.019531 -27.113281 14.035156 -27.054688 13.742188 -26.738281 C 13.605469 -26.523438 13.34375 -26.335938 13.183594 -26.234375 C 12.601562 -26.09375 10.515625 -23.992188 10.296875 -23.875 L 9.238281 -22.882812 C 8.199219 -21.828125 7.351562 -21.503906 8.347656 -22.484375 Z M 7.480469 -21.226562 C 7.085938 -21.316406 7.429688 -21.953125 7.816406 -21.613281 C 7.976562 -21.46875 7.742188 -21.164062 7.480469 -21.226562 Z M 12.511719 -21.078125 C 12.464844 -20.757812 12.054688 -20.414062 12.191406 -21.125 C 12.269531 -21.574219 12.515625 -21.574219 12.511719 -21.078125 Z M 11.0625 -18.386719 C 11.003906 -18.617188 11.820312 -20.355469 11.980469 -20.457031 C 12.097656 -20.484375 12.097656 -20.238281 12.035156 -19.976562 C 11.796875 -19.179688 11.640625 -19.574219 11.515625 -18.804688 C 11.453125 -18.296875 11.203125 -18.050781 11.0625 -18.386719 Z M 10.253906 -16.09375 C 10 -15.355469 9.730469 -16.214844 10.199219 -16.328125 C 10.300781 -16.414062 10.328125 -16.296875 10.253906 -16.09375 Z M 10.253906 -16.09375 "/></g></g></g><g fill="#000000" fill-opacity="1"><g transform="translate(222.182606, 230.041544)"><g><path d="M -6.25 7.359375 C -5.859375 7.945312 -3.976562 7.0625 -4.246094 6.449219 C -4.402344 6.054688 -4.222656 5.269531 -3.988281 5.214844 C -2.882812 4.949219 2.542969 -6.101562 3.121094 -7.289062 C 3.964844 -9.15625 4.429688 -8.773438 4.183594 -9.023438 C 3.953125 -9.214844 4.535156 -9.355469 4.964844 -10.136719 C 5.835938 -11.640625 8.472656 -13.507812 7.4375 -13.445312 C 7.25 -13.460938 6.96875 -13.085938 6.808594 -12.984375 C 6.765625 -12.914062 6.046875 -12.308594 5.902344 -12.398438 C 5.742188 -12.542969 6.445312 -13.207031 6.503906 -13.21875 C 8.324219 -14.890625 6.40625 -13.382812 6.734375 -14.324219 C 9.066406 -21.296875 10.582031 -23.203125 9.960938 -23.734375 C 9.886719 -23.777344 9.714844 -23.734375 9.640625 -23.78125 C 9.410156 -23.972656 9.515625 -24.304688 9.136719 -24.335938 C 8.933594 -24.410156 8.757812 -24.121094 8.554688 -24.199219 C 7.886719 -24.40625 8.074219 -25.683594 6.835938 -25.449219 C 2.503906 -24.46875 -4.785156 -12.972656 -3.484375 -10.140625 C -3.1875 -9.410156 -2.273438 -9.199219 -1.585938 -9.425781 C -0.902344 -9.652344 5.523438 -17.054688 6.078125 -17.558594 C 6.234375 -17.164062 5.597656 -15.960938 5.230469 -15.195312 C 4.679688 -13.890625 4.195312 -11.800781 3.195312 -10.820312 C -4.976562 -2.996094 -8.0625 5.453125 -7.054688 6.320312 C -6.734375 6.613281 -6.5625 6.820312 -6.25 7.359375 Z M -1.203125 -11.675781 C -1.871094 -11.636719 -2.507812 -12.226562 -1.445312 -13.960938 C 0.179688 -16.695312 2.332031 -19.554688 4.648438 -21.714844 C 5.261719 -22.234375 6.160156 -23.375 7.003906 -23.453125 C 8.386719 -23.601562 7.371094 -22.1875 6.53125 -21.058594 C 6.398438 -20.84375 -0.183594 -11.796875 -1.203125 -11.675781 Z M 3.398438 -10.5 C 3.5 -10.832031 3.632812 -10.804688 3.6875 -10.570312 C 3.714844 -10.453125 3.351562 -10.179688 3.398438 -10.5 Z M 1.089844 -8.035156 C 2.195312 -9.347656 2.664062 -9.707031 2.160156 -8.722656 C 1.566406 -7.59375 -1.378906 -4.972656 1.089844 -8.035156 Z M -5.25 6.132812 C -7.933594 8.566406 -0.332031 -1.894531 -0.117188 -3.054688 C -0.0859375 -3.433594 2.195312 -8.050781 2.421875 -7.121094 C 2.464844 -6.945312 -3.972656 5.027344 -5.25 6.132812 Z M -5.097656 4.1875 C -5.246094 4.097656 -5.03125 3.183594 -4.601562 2.402344 C -2.039062 -2.839844 -1.253906 -2.660156 -0.222656 -4.511719 C 0.03125 -5.003906 0.234375 -4.929688 0.113281 -4.40625 C -0.0703125 -3.621094 -4.898438 4.261719 -5.097656 4.1875 Z M 1.996094 -3.75 C 2.070312 -3.703125 2.273438 -3.878906 2.394531 -4.152344 C 3.042969 -5.296875 1.78125 -3.882812 1.996094 -3.75 Z M -2.898438 5.136719 C -2.679688 5.023438 -2.488281 4.792969 -2.355469 4.574219 C 0.820312 -0.691406 1.246094 -1.226562 1.519531 -2.402344 L 1.226562 -2.082031 C 1.363281 -2.792969 -1.050781 2.042969 -1.949219 3.183594 C -2.230469 3.558594 -3.210938 4.597656 -2.898438 5.136719 Z M -5.140625 7.09375 C -5.472656 6.988281 -5.148438 6.542969 -4.683594 6.429688 C -4.21875 6.316406 -4.808594 7.199219 -5.140625 7.09375 Z M -5.140625 7.09375 "/></g></g></g><g fill="#000000" fill-opacity="1"><g transform="translate(181.616405, 271.84514)"><g><path d="M 0.863281 -9.585938 C 1.65625 -9.835938 2.332031 -10.304688 3 -10.828125 C 7.914062 -14.445312 9.296875 -16.300781 10.804688 -17.882812 L 13.820312 -21.042969 C 14.066406 -21.285156 15.09375 -22.324219 14.753906 -22.730469 C 14.667969 -22.832031 14.597656 -22.875 14.480469 -22.847656 C 14.007812 -22.792969 13.644531 -22.28125 13.296875 -21.953125 L 12.09375 -20.871094 C 11.386719 -20.273438 2.453125 -10.820312 -0.332031 -11.003906 C -2.125 -11.121094 -1.671875 -13.542969 -0.390625 -14.035156 C 1.109375 -14.636719 6.777344 -18.679688 7.878906 -19.917969 C 8.894531 -21.015625 9.15625 -21.445312 9.164062 -22.421875 C 9.15625 -23.210938 8.550781 -24.464844 7.648438 -24.429688 C 6.8125 -24.351562 5.933594 -23.957031 5.238281 -23.546875 C 4.128906 -22.855469 3.144531 -21.886719 2.300781 -21.074219 C -0.132812 -18.785156 -3.347656 -13.933594 -3.027344 -11.328125 C -2.757812 -9.445312 -0.707031 -9.023438 0.863281 -9.585938 Z M 1.800781 -16.328125 C 1.699219 -16.484375 2.03125 -16.625 2.046875 -16.8125 C 2.625 -17.195312 2.410156 -17.082031 2.554688 -17.238281 C 2.496094 -17.226562 2.441406 -17.210938 2.425781 -17.269531 L 2.28125 -17.113281 L 2.222656 -17.097656 C 0.230469 -15.765625 0.0546875 -15.726562 0.828125 -16.824219 C 2.820312 -19.679688 4.09375 -20.714844 5.28125 -21.609375 C 6.609375 -22.660156 7.003906 -23.058594 7.0625 -23.316406 C 7.199219 -24.019531 7.5625 -23.253906 7.765625 -23.425781 C 7.808594 -23.496094 7.871094 -23.753906 7.984375 -23.535156 C 8.097656 -23.320312 8.121094 -22.960938 8.25 -22.6875 C 8.304688 -22.457031 8.390625 -22.355469 8.257812 -22.140625 C 8.125 -21.925781 7.851562 -21.800781 7.722656 -21.585938 C 7.53125 -21.359375 7.414062 -21.085938 7.210938 -20.914062 C 6.921875 -20.601562 6.488281 -20.375 6.171875 -20.179688 C 5.855469 -19.980469 5.691406 -19.636719 5.390625 -19.382812 C 5.289062 -19.296875 4.722656 -18.855469 4.996094 -18.738281 L 5.285156 -18.808594 C 5.152344 -18.59375 4.679688 -18.539062 4.890625 -18.410156 C 4.90625 -18.351562 4.171875 -18.113281 4.242188 -18.070312 C 4.429688 -18.054688 4.398438 -17.925781 4.210938 -17.941406 C 4.027344 -17.957031 2.769531 -17.109375 2.839844 -17.0625 C 2.941406 -16.90625 2.640625 -17.136719 2.59375 -16.820312 C 2.550781 -16.75 2.5625 -16.691406 2.492188 -16.738281 C 2.480469 -16.792969 2.105469 -16.582031 2.132812 -16.46875 C 2.203125 -16.421875 2.117188 -16.523438 1.800781 -16.328125 Z M 5.601562 -19.007812 C 5.195312 -18.664062 5.1875 -19.210938 5.371094 -19.195312 C 5.503906 -19.164062 5.199219 -18.910156 5.515625 -19.109375 C 5.617188 -19.191406 5.71875 -19.277344 5.730469 -19.21875 C 5.6875 -19.148438 5.949219 -19.332031 6.019531 -19.289062 C 6.035156 -19.230469 6.035156 -19.230469 5.976562 -19.21875 C 5.90625 -19.261719 5.859375 -19.191406 5.933594 -19.148438 C 5.972656 -18.972656 5.859375 -19.191406 5.601562 -19.007812 Z M 2.839844 -16.820312 C 2.882812 -16.890625 5.035156 -18.320312 5.046875 -18.265625 C 5.148438 -18.105469 2.761719 -16.375 2.839844 -16.820312 Z M 2.839844 -16.820312 "/></g></g></g><g fill="#000000" fill-opacity="1"><g transform="translate(195.028671, 268.621194)"><g><path d="M 7.558594 -3.765625 C 8.367188 -3.960938 5.097656 -4.636719 8.890625 -12.914062 C 9.183594 -13.472656 9.691406 -14.144531 9.84375 -14.789062 C 9.828125 -14.847656 12.902344 -24.355469 17.417969 -31.40625 C 18.394531 -32.921875 17.195312 -32.328125 16.589844 -33.582031 C 16.550781 -33.757812 16.21875 -33.859375 15.925781 -33.300781 C 14.046875 -30.230469 11.511719 -24.8125 11.167969 -24.730469 C 11.007812 -24.628906 10.265625 -23.414062 10.308594 -23.488281 C 9.679688 -23.824219 9.296875 -24.402344 7.832031 -24.414062 C 3.625 -24.4375 -2.140625 -15.746094 -3.308594 -12.238281 C -4.367188 -9.300781 -2.730469 -6.285156 0.789062 -9.386719 C 1.902344 -10.324219 7.40625 -16.820312 7.84375 -17.535156 C 8.425781 -18.40625 8.449219 -17.804688 7.878906 -16.628906 C 7.613281 -16.203125 4.300781 -8.707031 5.40625 -5.625 C 5.660156 -4.832031 6.523438 -3.515625 7.558594 -3.765625 Z M -1.519531 -9.867188 C -2.351562 -9.785156 -2.246094 -10.605469 -2.125 -11.121094 C -2.050781 -11.320312 -1.925781 -12.324219 -1.640625 -12.394531 C -1.582031 -12.40625 -1.535156 -12.722656 -1.445312 -13.109375 C -1.367188 -14.042969 -1.242188 -13.523438 -0.65625 -14.640625 C 1.011719 -18.085938 8.09375 -26.121094 9.023438 -22.753906 C 9.316406 -21.789062 9.105469 -22.164062 7.8125 -20.449219 C 5.71875 -17.753906 3.496094 -15.089844 1.261719 -12.484375 C 0.507812 -11.570312 -0.800781 -9.917969 -1.519531 -9.867188 Z M 10.683594 -23.699219 C 10.890625 -24.113281 11.222656 -24.253906 11.03125 -23.78125 C 10.824219 -23.367188 10.480469 -23.285156 10.683594 -23.699219 Z M 8.679688 -21.148438 C 8.929688 -21.632812 9.519531 -21.957031 9.082031 -21.242188 C 8.6875 -20.601562 8.402344 -20.53125 8.679688 -21.148438 Z M 8.296875 -20.203125 C 8.003906 -19.644531 8 -20.679688 8.34375 -20.519531 C 8.402344 -20.53125 8.386719 -20.34375 8.296875 -20.203125 Z M 5.734375 -8.320312 C 4.960938 -8.742188 9.84375 -21.367188 10.207031 -20.113281 C 10.25 -19.941406 7.082031 -12.847656 7.265625 -12.585938 C 7.28125 -12.527344 7.207031 -12.328125 7.0625 -12.171875 C 6.828125 -11.871094 6.828125 -11.871094 7.117188 -11.941406 C 7.347656 -11.996094 7.433594 -11.894531 7.515625 -11.550781 C 7.640625 -11.03125 7.367188 -10.90625 7.183594 -11.410156 C 7.101562 -11.753906 7.101562 -11.753906 6.792969 -11.253906 C 6.339844 -10.355469 6.089844 -8.101562 5.734375 -8.320312 Z M 10.535156 -18.488281 C 10.25 -18.664062 10.816406 -19.347656 10.914062 -18.945312 C 10.96875 -18.714844 10.679688 -18.398438 10.535156 -18.488281 Z M 9.183594 -14.996094 C 8.957031 -13.90625 8.421875 -15.117188 8.984375 -15.3125 C 9.273438 -15.382812 9.289062 -15.324219 9.183594 -14.996094 Z M 8.179688 -13.597656 C 8.148438 -13.222656 7.863281 -13.398438 7.980469 -13.671875 C 8.082031 -14 8.210938 -13.96875 8.179688 -13.597656 Z M 7.496094 -12.398438 C 7.4375 -12.628906 7.785156 -12.710938 7.8125 -12.59375 C 7.839844 -12.480469 7.5625 -12.109375 7.496094 -12.398438 Z M 6.785156 -10.277344 C 6.917969 -10.738281 7.566406 -11.074219 7.550781 -10.644531 C 7.546875 -10.402344 6.457031 -9.105469 6.785156 -10.277344 Z M 6.980469 -9.472656 C 6.847656 -9.257812 6.230469 -9.292969 6.734375 -9.472656 C 6.894531 -9.574219 7.023438 -9.542969 6.980469 -9.472656 Z M 6.980469 -9.472656 "/></g></g></g><g fill="#000000" fill-opacity="1"><g transform="translate(210.570782, 264.885291)"><g><path d="M 8.875 -11.207031 C 9.726562 -11.472656 9.421875 -11.214844 17.308594 -19.445312 L 20.324219 -22.605469 C 20.570312 -22.847656 21.601562 -23.886719 21.257812 -24.292969 C 21.175781 -24.394531 21.101562 -24.4375 20.988281 -24.410156 C 20.945312 -24.339844 15.574219 -19.820312 14.355469 -18.554688 C 10.167969 -14.195312 8.984375 -13.792969 8.660156 -14.140625 C 8.089844 -14.734375 9.597656 -18.078125 9.714844 -18.105469 C 9.945312 -18.164062 13.519531 -26.085938 13.378906 -26.417969 C 13.265625 -26.632812 12.796875 -26.824219 12.609375 -26.839844 C 11.546875 -26.953125 8.78125 -21.230469 8.15625 -20.535156 C 0.132812 -11.601562 0.601562 -12.691406 0.179688 -13.441406 C 0.152344 -13.554688 0.0078125 -13.644531 -0.0195312 -13.757812 C -0.144531 -14.277344 0.941406 -15.085938 0.984375 -15.15625 C 1 -15.34375 0.375 -15.921875 1.28125 -16.203125 C 1.410156 -15.929688 1.363281 -15.613281 1.246094 -15.339844 C 1.316406 -15.296875 1.417969 -15.382812 1.449219 -15.511719 C 1.964844 -16.914062 5.664062 -24.5625 5.273438 -23.921875 C 3.613281 -24.738281 3.679688 -25.484375 0.882812 -19.636719 C -1.066406 -15.578125 -1.8125 -13.875 -2.214844 -12.253906 C -2.660156 -10.808594 -2.582031 -9.730469 -2.0625 -10.101562 C -1.917969 -10.257812 -1.847656 -10.214844 -1.808594 -9.796875 C -1.78125 -9.4375 -1.667969 -9.21875 -1.136719 -9.042969 L -0.582031 -8.75 C -0.277344 -9.007812 0.503906 -9.558594 1.566406 -10.972656 C 2.4375 -12.15625 5.824219 -15.039062 6.246094 -15.8125 C 6.832031 -16.925781 7.242188 -16.476562 6.980469 -16.050781 C 6.851562 -15.835938 6.035156 -13.144531 7.03125 -12.042969 C 7.445312 -11.59375 8.140625 -10.96875 8.875 -11.207031 Z M 8.417969 -17.671875 C 8.066406 -17.101562 8.035156 -18.007812 8.347656 -17.960938 C 8.476562 -17.933594 8.503906 -17.816406 8.417969 -17.671875 Z M 7.367188 -15.960938 C 6.972656 -16.59375 8.667969 -18.160156 7.816406 -16.371094 C 7.613281 -15.957031 7.46875 -15.800781 7.367188 -15.960938 Z M 6.734375 -14.042969 C 6.632812 -14.199219 7.121094 -15.71875 7.265625 -15.628906 C 7.40625 -15.542969 6.847656 -13.824219 6.734375 -14.042969 Z M 6.734375 -14.042969 "/></g></g></g><g fill="#000000" fill-opacity="1"><g transform="translate(229.336445, 260.374534)"><g><path d="M 14.234375 -22.605469 C 14.152344 -22.707031 14.078125 -22.75 13.964844 -22.722656 C 13.433594 -22.65625 12.820312 -21.898438 12.429688 -21.5 L 10.535156 -19.765625 C 9.246094 -18.542969 8 -17.390625 6.765625 -16.179688 C 4.855469 -14.257812 2.753906 -12.355469 0.332031 -11.285156 C -1.152344 -10.625 -1.722656 -10.972656 -0.964844 -12.375 C -0.671875 -12.929688 -0.480469 -13.402344 -0.390625 -14.035156 C -0.53125 -14.121094 -0.675781 -14.210938 -0.714844 -14.382812 C -0.703125 -14.324219 -0.6875 -14.511719 -0.484375 -14.679688 C -0.0195312 -15.035156 -0.476562 -15.414062 -0.160156 -15.613281 C 0 -15.710938 0.199219 -15.636719 0.285156 -15.535156 C 0.457031 -15.332031 0.355469 -15.25 0.5 -15.40625 C 1.078125 -16.03125 0.632812 -16.105469 1.128906 -16.835938 C 3.75 -20.632812 3.726562 -19.957031 4.035156 -20.699219 C 4.109375 -20.902344 4.011719 -21.058594 4.15625 -21.214844 C 4.390625 -21.515625 4.402344 -21.457031 4.457031 -21.226562 C 4.472656 -21.171875 4.585938 -21.199219 4.628906 -21.269531 C 5.113281 -22.054688 5.847656 -22.535156 6.527344 -23.003906 C 6.992188 -23.359375 7.558594 -24.042969 8.171875 -23.765625 C 8.386719 -23.632812 8.398438 -23.332031 8.382812 -23.144531 C 8.320312 -22.886719 8.203125 -22.617188 8.132812 -22.414062 C 7.984375 -22.015625 7.777344 -21.601562 7.546875 -21.300781 C 7.3125 -21 7.140625 -20.960938 6.835938 -20.703125 C 6.15625 -20.234375 6.871094 -19.800781 6.4375 -19.328125 C 6.335938 -19.242188 5.554688 -18.691406 5.996094 -18.371094 C 6.070312 -18.328125 6.253906 -18.3125 6.371094 -18.339844 C 6.945312 -18.476562 7.308594 -18.992188 7.6875 -19.445312 C 8.777344 -20.742188 10.210938 -22.125 9.882812 -23.992188 C 9.730469 -24.628906 9.335938 -25.261719 8.71875 -25.296875 C 8.53125 -25.3125 8.300781 -25.257812 8.128906 -25.214844 C 6.140625 -24.617188 4.5625 -23.078125 3.140625 -21.640625 C 1.605469 -20.175781 0.269531 -18.636719 -0.824219 -16.851562 C -1.4375 -15.851562 -1.976562 -14.808594 -2.386719 -13.738281 C -2.828125 -12.777344 -3.328125 -11.5625 -3.136719 -10.511719 C -3.011719 -9.75 -2.171875 -9.28125 -1.507812 -9.320312 C -0.300781 -9.367188 0.820312 -9.757812 1.832031 -10.367188 C 2.421875 -10.691406 3.078125 -11.519531 3.769531 -11.683594 C 4.054688 -11.753906 4.546875 -12.238281 4.75 -12.40625 C 10.648438 -18.027344 10.867188 -18.382812 13.300781 -20.917969 C 13.546875 -21.160156 14.578125 -22.199219 14.234375 -22.605469 Z M 4.382812 -12.929688 C 4.441406 -13.1875 4.632812 -13.414062 4.90625 -13.539062 L 4.832031 -13.339844 C 4.875 -13.410156 4.945312 -13.367188 5.0625 -13.394531 C 4.886719 -13.109375 4.683594 -12.941406 4.382812 -12.929688 Z M 1.855469 -11.53125 C 1.773438 -11.628906 1.859375 -11.773438 1.902344 -11.84375 C 2.003906 -11.929688 2.132812 -11.898438 2.304688 -11.941406 C 2.289062 -11.753906 2.101562 -11.527344 1.855469 -11.53125 Z M 1.433594 -11 C 1.335938 -10.917969 1.148438 -10.933594 0.976562 -10.890625 C 0.757812 -10.777344 0.570312 -10.550781 0.3125 -10.609375 C 0.210938 -10.769531 0.359375 -10.925781 0.460938 -11.011719 C 0.777344 -11.207031 1.109375 -11.347656 1.441406 -11.488281 L 1.394531 -11.417969 L 1.523438 -11.390625 C 1.667969 -11.300781 1.59375 -11.101562 1.433594 -11 Z M 1.433594 -11 "/></g></g></g><g fill="#000000" fill-opacity="1"><g transform="translate(242.806277, 257.136751)"><g><path d="M 6.339844 -10.355469 C 6.757812 -10.394531 7.105469 -10.71875 7.394531 -11.035156 C 17.125 -21.226562 9.816406 -13.382812 18.078125 -22.066406 C 18.328125 -22.308594 19.414062 -23.363281 19.015625 -23.753906 C 18.988281 -23.867188 18.859375 -23.898438 18.800781 -23.882812 C 18.269531 -23.816406 17.859375 -23.230469 17.5 -22.960938 L 16.152344 -21.726562 C 7.667969 -13.960938 7.789062 -13.441406 6.898438 -13.351562 C 6.671875 -13.785156 7.367188 -14.195312 7.257812 -14.652344 C 7.242188 -14.710938 7.140625 -14.625 6.980469 -14.527344 C 6.449219 -14.214844 6.683594 -14.761719 7.246094 -15.199219 C 7.652344 -15.539062 7.738281 -15.683594 7.539062 -15.757812 C 7.339844 -15.832031 7.382812 -15.902344 7.65625 -16.027344 C 8.347656 -16.4375 7.546875 -16.488281 8.167969 -17.1875 C 8.546875 -17.644531 7.933594 -17.921875 8.394531 -18.03125 C 8.851562 -18.144531 8.359375 -18.9375 8.644531 -19.007812 C 9.105469 -19.117188 11.71875 -23.949219 10.605469 -24.53125 C 10.335938 -24.648438 9.910156 -23.878906 9.402344 -24.730469 C 7.304688 -27.878906 1.011719 -19.609375 -0.609375 -16.722656 C -1.949219 -14.449219 -2.566406 -11.683594 -2.574219 -10.707031 C -2.5 -9.386719 -1.167969 -9.160156 -0.328125 -9.726562 C 1.433594 -11 0.429688 -10.882812 5.285156 -16.007812 C 6.605469 -17.359375 6.648438 -17.429688 6.28125 -16.429688 C 5.957031 -15.5 5.691406 -14.582031 5.4375 -13.609375 C 5.183594 -12.632812 4.644531 -11.589844 5.582031 -10.71875 C 5.8125 -10.53125 6.027344 -10.398438 6.339844 -10.355469 Z M 0.183594 -12.40625 C -0.496094 -11.695312 -0.75 -12.488281 -0.457031 -13.042969 C -0.234375 -13.644531 0.300781 -14.199219 0.335938 -14.816406 C 0.382812 -15.378906 0.925781 -15.140625 0.414062 -15.507812 C 0.1875 -15.695312 0.171875 -15.753906 0.542969 -15.71875 C 0.976562 -15.703125 1.351562 -16.160156 1.066406 -16.332031 C 0.851562 -16.464844 1.378906 -17.320312 1.59375 -17.191406 C 1.851562 -17.128906 2.34375 -17.859375 2.277344 -18.144531 C 2.207031 -18.433594 3.238281 -19.71875 3.757812 -20.085938 C 3.960938 -20.257812 4.148438 -20.484375 4.136719 -20.542969 C 4.039062 -20.945312 7.558594 -24.289062 8.046875 -24.285156 C 8.363281 -24.238281 8.933594 -22.363281 5.785156 -18.746094 C 3.855469 -16.636719 2.210938 -14.355469 0.183594 -12.40625 Z M 6.128906 -14.019531 C 6.058594 -14.0625 6.101562 -14.132812 6.089844 -14.191406 C 6.046875 -14.363281 5.960938 -14.464844 6.050781 -14.609375 C 6.078125 -14.738281 6.253906 -15.023438 6.410156 -14.878906 C 6.496094 -14.777344 6.277344 -14.417969 6.246094 -14.289062 C 6.21875 -14.160156 6.273438 -13.929688 6.128906 -14.019531 Z M 5.789062 -12.902344 C 5.675781 -12.875 5.648438 -12.988281 5.734375 -13.132812 C 6.101562 -13.890625 6.191406 -12.996094 5.789062 -12.902344 Z M 5.789062 -12.902344 "/></g></g></g><g fill="#000000" fill-opacity="1"><g transform="translate(260.478234, 252.888891)"><g><path d="M -3.152344 -0.703125 C -2.921875 -0.757812 -2.726562 -1.71875 -2.96875 -1.964844 C -3.199219 -2.15625 -3.6875 -1.914062 -3.570312 -2.1875 C -3.453125 -2.457031 -3.585938 -3.523438 -2.839844 -4.980469 C -2.519531 -5.667969 -2.734375 -5.796875 -3.097656 -5.285156 C -3.691406 -4.472656 -3.875 -4.976562 -3.417969 -6.121094 C -3.050781 -7.121094 -3.472656 -6.59375 -3.554688 -6.941406 C -3.582031 -7.054688 -3.539062 -7.125 -3.425781 -7.152344 C -3.125 -7.164062 -2.847656 -7.292969 -2.875 -7.40625 C -2.976562 -7.566406 -2.917969 -7.582031 -2.914062 -8.070312 C -2.949219 -8.730469 -2.890625 -8.988281 -2.660156 -9.042969 C -2.488281 -9.085938 -2.355469 -9.296875 -2.238281 -9.570312 C -2.179688 -9.828125 -2.0625 -10.101562 -2.003906 -10.113281 C -1.773438 -10.167969 -1.886719 -10.628906 -2.144531 -10.691406 C -2.328125 -10.707031 -2.34375 -10.761719 -2.183594 -10.863281 C -2.097656 -11.003906 -2.027344 -10.960938 -2 -10.847656 C -1.96875 -10.730469 -1.855469 -10.757812 -1.8125 -10.832031 C -1.710938 -10.914062 -1.636719 -11.117188 -1.679688 -11.289062 C -1.734375 -11.519531 -1.644531 -11.660156 -1.472656 -11.703125 C -1.300781 -11.746094 -1.230469 -11.699219 -1.359375 -11.488281 C -1.449219 -11.34375 -1.40625 -11.171875 -1.261719 -11.082031 C -1.105469 -10.9375 -1.136719 -10.808594 -1.324219 -10.582031 C -1.570312 -10.339844 -1.601562 -10.210938 -1.402344 -10.136719 C -1.128906 -10.019531 -0.75 -10.71875 -0.949219 -11.039062 C -1.035156 -11.140625 -1.003906 -11.269531 -0.832031 -11.308594 C -0.714844 -11.335938 -0.570312 -11.492188 -0.554688 -11.679688 C -0.523438 -12.054688 -0.273438 -12.539062 0.382812 -13.609375 C 0.601562 -13.96875 0.847656 -14.453125 0.964844 -14.726562 C 1.144531 -15.253906 1.128906 -15.3125 0.796875 -15.171875 C 0.625 -15.132812 0.523438 -15.046875 0.539062 -14.988281 C 0.695312 -14.84375 -0.0195312 -13.757812 -0.304688 -13.6875 C -0.652344 -13.605469 -0.519531 -14.0625 -0.824219 -13.808594 C -1.070312 -13.566406 -0.90625 -14.152344 -0.632812 -14.035156 C -0.375 -13.976562 -0.773438 -14.613281 -0.207031 -15.050781 C 0.472656 -15.519531 0.0585938 -15.96875 0.40625 -16.296875 C 0.550781 -16.453125 0.464844 -16.554688 0.265625 -16.628906 C 0.0078125 -16.6875 0.0507812 -16.757812 0.398438 -16.84375 C 0.628906 -16.898438 0.730469 -16.984375 0.644531 -17.082031 C 0.5 -17.171875 0.542969 -17.242188 0.671875 -17.210938 C 1.074219 -17.066406 1.292969 -17.421875 1.007812 -17.597656 C 0.777344 -17.785156 0.824219 -17.859375 1.011719 -18.085938 C 1.171875 -18.183594 1.199219 -18.3125 1.085938 -18.285156 C 0.625 -18.175781 0.773438 -18.578125 1.277344 -18.757812 C 1.894531 -18.96875 2.226562 -18.863281 1.804688 -18.582031 C 1.429688 -18.371094 1.785156 -17.90625 1.496094 -17.835938 C 1.265625 -17.78125 1.292969 -17.421875 1.695312 -17.519531 C 2.15625 -17.628906 2.820312 -19.679688 2.96875 -20.078125 C 3.863281 -22.179688 4.6875 -24.328125 5.640625 -26.445312 C 5.714844 -26.644531 5.789062 -26.84375 5.847656 -27.105469 C 6.019531 -27.144531 6.25 -27.199219 6.4375 -27.183594 C 7.585938 -27.460938 8.886719 -28.140625 9.898438 -28.746094 C 10.53125 -29.144531 11.167969 -29.296875 11.84375 -29.519531 L 12.015625 -29.5625 C 12.359375 -29.644531 12.765625 -29.742188 13.097656 -29.882812 C 13.195312 -29.964844 13.296875 -30.050781 13.214844 -30.152344 C 13.027344 -30.167969 12.855469 -30.128906 12.679688 -30.085938 C 12.277344 -29.988281 11.804688 -29.9375 11.34375 -29.824219 L 11.113281 -29.769531 C 10.855469 -29.828125 10.757812 -29.988281 10.511719 -29.992188 C 10.339844 -29.949219 10.136719 -29.777344 9.964844 -29.738281 L 8.679688 -29.246094 C 7.859375 -28.867188 7.09375 -28.5 6.171875 -28.277344 C 5.886719 -28.210938 5.613281 -28.082031 5.324219 -28.011719 L 4.632812 -27.847656 C 4.75 -28.117188 5.066406 -28.316406 5.34375 -28.445312 L 6.394531 -28.878906 C 6.898438 -29.0625 7.402344 -29.242188 7.894531 -29.484375 C 8.269531 -29.695312 8.871094 -29.71875 9.148438 -30.089844 C 9.46875 -30.53125 8.820312 -30.4375 8.476562 -30.355469 C 8.246094 -30.296875 7.984375 -30.113281 7.769531 -30 C 7.4375 -29.859375 6.6875 -29.4375 6.804688 -29.707031 L 9.316406 -34.453125 C 9.683594 -35.210938 10.660156 -35.445312 10.894531 -35.746094 C 11.125 -36.046875 11.261719 -36.503906 11.074219 -36.765625 C 10.671875 -36.421875 10.179688 -36.183594 9.621094 -36.230469 C 9.605469 -36.289062 9.578125 -36.40625 9.492188 -36.503906 C 9.292969 -36.335938 9.089844 -36.164062 8.898438 -35.9375 C 7.882812 -34.839844 7.316406 -33.910156 5.15625 -30.226562 L 4.425781 -28.953125 L 4.3125 -28.925781 C 2.511719 -28.3125 1.589844 -27.847656 -1.78125 -26.914062 C -2.128906 -26.585938 -2.113281 -26.53125 -1.691406 -25.777344 C -1.421875 -25.417969 -1.582031 -25.074219 -1.136719 -25.242188 C 2.148438 -26.277344 1.5 -26.179688 3.34375 -26.625 C 2.597656 -25.164062 1.984375 -23.921875 0.148438 -19.402344 C -3.453125 -10.558594 -6.867188 -4.5 -4.152344 -1.316406 C -3.398438 -0.460938 -3.554688 -0.605469 -3.152344 -0.703125 Z M 3.238281 -27.574219 C 3.007812 -27.515625 2.707031 -27.503906 2.476562 -27.449219 C 2.503906 -27.578125 2.691406 -27.5625 2.808594 -27.589844 C 3.035156 -27.644531 3.253906 -27.757812 3.398438 -27.914062 L 3.355469 -27.84375 C 3.570312 -27.957031 3.742188 -28 3.972656 -28.054688 C 4.046875 -28.011719 4.003906 -27.9375 3.945312 -27.925781 C 3.902344 -27.855469 3.84375 -27.839844 3.785156 -27.824219 C 3.726562 -27.8125 3.683594 -27.742188 3.640625 -27.667969 C 3.539062 -27.585938 3.425781 -27.554688 3.238281 -27.574219 Z M 1.777344 -19.972656 C 1.71875 -20.203125 2.179688 -20.316406 2.410156 -20.125 C 2.59375 -19.867188 1.832031 -19.746094 1.777344 -19.972656 Z M 1.054688 -16.390625 C 1.269531 -16.257812 1.382812 -16.289062 1.515625 -16.5 C 1.644531 -16.714844 1.585938 -16.703125 1.242188 -16.617188 C 0.882812 -16.59375 0.839844 -16.523438 1.054688 -16.390625 Z M 0.691406 -15.878906 C 0.355469 -15.25 1.289062 -15.410156 1.179688 -16.117188 C 1.125 -16.347656 0.851562 -16.21875 0.691406 -15.878906 Z M -2.152344 -12.757812 C -2.296875 -12.84375 -1.675781 -14.578125 -1.550781 -14.058594 C -1.496094 -13.828125 -2.082031 -12.714844 -2.152344 -12.757812 Z M -0.863281 -12.457031 C -1.453125 -12.378906 -1.695312 -12.625 -1.175781 -12.75 C -0.945312 -12.804688 -0.960938 -12.863281 -1.089844 -12.890625 C -1.40625 -12.9375 -1.328125 -13.382812 -0.914062 -13.175781 C -0.773438 -13.089844 -0.496094 -13.460938 -0.371094 -12.941406 C -0.289062 -12.597656 -0.390625 -12.511719 -0.863281 -12.457031 Z M -3.046875 -10.65625 C -3.265625 -10.296875 -3.164062 -10.628906 -2.679688 -11.902344 C -2.074219 -13.445312 -2.496094 -11.398438 -3.046875 -10.65625 Z M -1.699219 -8.847656 C -1.527344 -8.890625 -1.394531 -9.347656 -1.476562 -9.691406 C -1.519531 -9.867188 -1.761719 -9.867188 -1.894531 -9.652344 C -2.023438 -9.4375 -1.875 -8.804688 -1.699219 -8.847656 Z M -3.035156 -5.785156 C -2.476562 -5.738281 -2.054688 -7.789062 -1.761719 -8.34375 C -1.585938 -8.632812 -1.601562 -8.6875 -1.832031 -8.632812 C -2.003906 -8.589844 -2.164062 -8.492188 -2.265625 -8.40625 C -2.640625 -7.953125 -2.652344 -6.730469 -3.058594 -6.144531 C -3.234375 -5.859375 -3.222656 -5.800781 -3.035156 -5.785156 Z M -3.035156 -5.785156 "/></g></g></g><g fill="#000000" fill-opacity="1"><g transform="translate(266.004318, 251.56057)"><g><path d="M 4.648438 -26.265625 C 4.777344 -26.480469 5.066406 -26.550781 5.140625 -26.75 C 5.402344 -27.179688 5.230469 -27.382812 5.851562 -27.59375 C 6.242188 -27.746094 6.730469 -27.742188 6.992188 -28.171875 C 7.152344 -28.511719 7.097656 -28.988281 6.800781 -29.21875 C 6.34375 -29.597656 5.234375 -29.394531 4.84375 -28.992188 C 4.308594 -28.4375 4.070312 -27.40625 4.25 -26.660156 C 4.414062 -25.96875 4.414062 -25.96875 4.648438 -26.265625 Z M 0.0078125 -10.355469 L 5.265625 -15.332031 C 6.917969 -16.824219 8.410156 -18.464844 9.90625 -20.101562 C 10.152344 -20.34375 11.238281 -21.394531 10.898438 -21.800781 C 10.8125 -21.902344 10.742188 -21.945312 10.625 -21.917969 C 9.964844 -21.882812 9.394531 -20.953125 8.863281 -20.640625 C 7.953125 -20.121094 7.242188 -19.277344 6.5 -18.554688 C 4.734375 -16.789062 0.546875 -12.675781 -1.054688 -11.988281 C -1.347656 -12.707031 0.816406 -15.601562 0.476562 -16.007812 C 0.390625 -16.109375 0.464844 -16.308594 0.566406 -16.394531 C 0.941406 -16.605469 1.511719 -17.78125 1.441406 -18.066406 C 1.402344 -18.238281 1.5625 -18.582031 1.738281 -18.867188 C 2.175781 -19.582031 1.773438 -19.730469 2.234375 -19.839844 C 2.578125 -19.925781 3.019531 -20.882812 2.890625 -21.15625 C 2.835938 -21.386719 2.722656 -21.601562 2.738281 -21.789062 C 2.785156 -22.105469 3.144531 -22.128906 3.199219 -21.898438 C 3.273438 -21.855469 3.242188 -21.726562 3.253906 -21.671875 C 3.339844 -21.570312 3.558594 -21.679688 3.660156 -21.765625 C 4.921875 -23.347656 3.792969 -23.746094 4.453125 -24.027344 C 5.117188 -24.308594 5.035156 -24.65625 4.40625 -24.992188 C 3.5625 -25.457031 3.058594 -25.277344 2.445312 -24.03125 C 1.273438 -21.804688 -0.964844 -17.183594 -2.636719 -13.25 C -3.296875 -11.691406 -3.328125 -11.5625 -3.164062 -10.628906 C -2.832031 -9.246094 -1.789062 -8.703125 0.0078125 -10.355469 Z M 0.0078125 -10.355469 "/></g></g></g><g fill="#000000" fill-opacity="1"><g transform="translate(275.502276, 249.277518)"><g><path d="M 0.296875 -8.902344 C 2.535156 -10.230469 3.980469 -14.355469 4.621094 -15.480469 C 5.238281 -15.449219 6.015625 -15.511719 6.691406 -15.738281 C 9.039062 -16.605469 11.027344 -18.972656 12.726562 -20.78125 C 12.972656 -21.023438 14.058594 -22.074219 13.71875 -22.480469 C 13.632812 -22.582031 13.503906 -22.609375 13.445312 -22.597656 C 12.972656 -22.542969 12.304688 -21.773438 12.101562 -21.605469 C 10.613281 -20.453125 8.195312 -18.351562 6.046875 -17.652344 C 6.328125 -18.511719 6.46875 -19.457031 6.71875 -20.1875 C 7.042969 -21.117188 7.660156 -22.605469 7.0625 -23.558594 C 6.765625 -24.035156 5.679688 -24.503906 5.277344 -24.410156 C 3.878906 -23.890625 3.832031 -28.140625 -1.738281 -15.597656 C -3.351562 -11.921875 -2.734375 -7.074219 0.296875 -8.902344 Z M 3.78125 -17.714844 C 3.421875 -17.933594 3.09375 -18.28125 3 -18.683594 C 4.070312 -21.316406 6.554688 -24.410156 5.203125 -20.917969 C 4.335938 -18.703125 4.140625 -17.984375 3.78125 -17.714844 Z M 7.078125 -21.734375 C 6.957031 -21.464844 6.886719 -21.507812 6.847656 -21.679688 C 6.789062 -21.910156 7.207031 -21.949219 7.078125 -21.734375 Z M 6.324219 -19.546875 C 6.28125 -19.472656 5.675781 -19.449219 5.675781 -19.449219 C 5.664062 -19.507812 5.808594 -19.664062 6.011719 -19.835938 C 6.316406 -20.089844 6.371094 -20.105469 6.371094 -19.859375 Z M -0.5625 -10.949219 C -1.46875 -10.667969 1.019531 -17.539062 1.464844 -17.21875 C 1.558594 -16.816406 1.757812 -16.5 2.257812 -16.191406 C 2.738281 -15.457031 2.726562 -15.515625 2.347656 -14.8125 C 1.921875 -14.042969 0.21875 -11.257812 -0.5625 -10.949219 Z M 5.144531 -17.617188 C 5.070312 -17.660156 4.902344 -18.109375 5.261719 -18.132812 C 5.664062 -18.230469 5.199219 -17.632812 5.144531 -17.617188 Z M 4.761719 -16.917969 C 4.632812 -16.703125 4.574219 -16.6875 4.402344 -16.890625 C 4.292969 -17.109375 4.882812 -17.1875 4.761719 -16.917969 Z M 3.820312 -15.777344 C 3.671875 -15.375 3.484375 -15.390625 3.621094 -15.851562 C 3.664062 -16.164062 3.996094 -16.304688 3.820312 -15.777344 Z M 2.515625 -13.089844 C 2.039062 -12.792969 1.898438 -12.878906 2.0625 -13.464844 C 2.390625 -15.128906 3.445312 -14.042969 2.921875 -14.953125 C 2.78125 -15.285156 2.765625 -15.339844 3.070312 -15.351562 C 3.601562 -15.417969 4.015625 -15.214844 3.683594 -15.074219 C 3.207031 -14.777344 3.222656 -13.441406 2.652344 -13.546875 C 2.347656 -13.535156 2.347656 -13.535156 2.503906 -13.390625 C 2.664062 -13.246094 2.675781 -13.1875 2.515625 -13.089844 Z M -0.136719 -10.441406 C -0.25 -10.414062 -0.164062 -10.558594 -0.03125 -10.769531 C 0.550781 -11.640625 0.339844 -10.496094 -0.136719 -10.441406 Z M 1.277344 -11.148438 C 1.105469 -11.105469 0.976562 -11.136719 1.019531 -11.207031 C 1.109375 -11.347656 1.683594 -11.242188 1.277344 -11.148438 Z M 0.640625 -10.261719 C 0.363281 -9.890625 0.207031 -10.035156 0.410156 -10.449219 C 0.628906 -10.808594 0.84375 -10.675781 0.640625 -10.261719 Z M 0.640625 -10.261719 "/></g></g></g><g fill="#000000" fill-opacity="1"><g transform="translate(288.972107, 246.039735)"><g><path d="M 9.164062 -7.988281 C 9.207031 -8.058594 9.308594 -8.386719 9.355469 -8.703125 C 9.605469 -10.957031 11.972656 -16.824219 12.160156 -17.050781 C 12.25 -17.195312 12.511719 -17.867188 12.71875 -18.523438 C 13.253906 -20.359375 13.949219 -21.011719 14.539062 -22.617188 C 14.789062 -23.347656 14.820312 -23.476562 14.558594 -23.535156 C 14.417969 -23.621094 14.347656 -23.664062 14.460938 -23.695312 C 14.578125 -23.722656 14.679688 -24.050781 14.710938 -24.421875 C 14.792969 -25.355469 15.414062 -25.808594 14.328125 -26.523438 C 14.171875 -26.667969 14.144531 -26.785156 14.289062 -26.941406 C 14.578125 -27.253906 14.191406 -27.34375 13.402344 -27.09375 C 10.246094 -26.03125 7.441406 -22.492188 5.410156 -20.054688 C 4.421875 -18.84375 3.207031 -17.820312 2.363281 -16.523438 C 2.128906 -16.222656 1.605469 -15.367188 1.335938 -15.972656 C 1.210938 -16.246094 1.660156 -16.902344 1.777344 -17.175781 C 2.175781 -18.0625 2.816406 -18.945312 3.023438 -19.847656 C 3.589844 -22.296875 5.140625 -23.707031 4.601562 -24.183594 C 4.335938 -23.757812 3.589844 -23.820312 3.367188 -24.253906 C 2.484375 -23.859375 2.316406 -22.785156 1.894531 -22.011719 C 0.390625 -19.152344 -0.886719 -16.105469 -1.964844 -12.984375 C -2.203125 -12.199219 -2.960938 -10.796875 -2.277344 -9.988281 C -2.023438 -9.683594 -0.261719 -8.949219 -0.171875 -9.582031 C -0.125 -9.894531 -0.269531 -9.984375 0.09375 -10.496094 C 1.363281 -12.324219 2.511719 -14.121094 3.992188 -15.816406 C 5.007812 -16.914062 6.449219 -19.027344 6.738281 -19.097656 C 6.851562 -19.125 6.9375 -19.265625 6.925781 -19.324219 C 6.910156 -19.382812 7.144531 -19.679688 7.402344 -19.867188 C 7.707031 -20.121094 7.953125 -20.363281 7.925781 -20.480469 C 7.855469 -20.523438 7.941406 -20.664062 8.058594 -20.691406 C 8.230469 -20.734375 8.578125 -21.0625 8.796875 -21.417969 C 9.59375 -22.402344 9.792969 -22.085938 9.78125 -22.386719 C 9.855469 -22.585938 11.03125 -23.78125 11.316406 -23.851562 C 11.433594 -23.878906 11.621094 -24.105469 11.753906 -24.320312 C 12.058594 -24.820312 12.039062 -24.390625 12.546875 -24.816406 C 14.789062 -26.632812 7.335938 -15.34375 7.570312 -9.796875 C 7.589844 -8.707031 7.605469 -8.648438 7.960938 -8.429688 C 8.160156 -8.355469 8.316406 -8.210938 8.332031 -8.152344 C 8.273438 -7.894531 8.972656 -7.757812 9.164062 -7.988281 Z M 8.242188 -22.199219 C 9.113281 -23.140625 11.925781 -26.128906 13.339844 -26.589844 C 13.84375 -26.773438 13.855469 -26.714844 13.566406 -26.402344 C 13.4375 -26.1875 13.175781 -26.003906 13.015625 -25.902344 C 12.441406 -25.765625 10.382812 -23.6875 10.167969 -23.574219 L 9.125 -22.59375 C 8.09375 -21.554688 7.257812 -21.230469 8.242188 -22.199219 Z M 7.386719 -20.957031 C 7 -21.046875 7.335938 -21.675781 7.71875 -21.34375 C 7.875 -21.195312 7.644531 -20.898438 7.386719 -20.957031 Z M 12.351562 -20.8125 C 12.308594 -20.496094 11.902344 -20.15625 12.039062 -20.859375 C 12.113281 -21.300781 12.355469 -21.300781 12.351562 -20.8125 Z M 10.921875 -18.152344 C 10.867188 -18.382812 11.671875 -20.101562 11.832031 -20.199219 C 11.945312 -20.226562 11.941406 -19.984375 11.882812 -19.726562 C 11.644531 -18.9375 11.492188 -19.324219 11.371094 -18.566406 C 11.308594 -18.0625 11.0625 -17.820312 10.921875 -18.152344 Z M 10.125 -15.890625 C 9.875 -15.160156 9.609375 -16.011719 10.070312 -16.121094 C 10.171875 -16.207031 10.199219 -16.09375 10.125 -15.890625 Z M 10.125 -15.890625 "/></g></g></g><g clip-path="url(#a4372334a1)"><g clip-path="url(#44c197e05f)"><g clip-path="url(#158be9d315)"><g clip-path="url(#c3a0a9a10f)"><path fill="#000000" d="M 222.722656 184.355469 C 222.832031 184.363281 222.9375 184.359375 223.050781 184.359375 C 228.824219 183.800781 234.605469 183.214844 240.382812 182.671875 C 246.144531 182.132812 251.910156 181.636719 257.664062 181.152344 C 258.039062 181.117188 258.425781 181.183594 258.765625 181.339844 C 259.273438 181.601562 259.464844 182.109375 259.316406 182.675781 C 259.164062 183.277344 258.734375 183.613281 258.136719 183.609375 C 252.171875 183.511719 246.316406 184.683594 240.402344 185.191406 C 236.539062 185.527344 232.667969 185.828125 228.816406 186.199219 C 222.847656 186.777344 216.964844 187.828125 211.085938 188.976562 C 206.839844 189.800781 202.570312 190.480469 198.335938 191.386719 C 196.203125 191.847656 194.128906 192.613281 192.046875 193.324219 C 182.351562 196.628906 172.6875 200.03125 162.957031 203.261719 C 158.578125 204.714844 154.097656 205.871094 149.640625 207.066406 C 147.648438 207.601562 145.589844 207.902344 143.515625 207.625 C 142.855469 207.527344 142.21875 207.289062 141.664062 206.914062 C 140.75 206.289062 140.707031 205.234375 141.480469 204.453125 C 141.851562 204.097656 142.257812 203.769531 142.695312 203.488281 C 146.511719 200.839844 150.75 199.148438 155.179688 197.910156 C 163.835938 195.492188 172.542969 193.234375 181.378906 191.554688 C 185.648438 190.742188 189.957031 190.117188 194.28125 189.59375 C 197.785156 189.167969 201.089844 188.050781 204.460938 187.121094 C 212.582031 184.878906 220.710938 182.625 228.863281 180.523438 C 236.441406 178.566406 243.957031 176.394531 251.328125 173.753906 C 251.929688 173.53125 252.496094 173.246094 253.136719 172.96875 C 252.832031 172.347656 252.363281 172.242188 251.902344 172.289062 C 250.460938 172.445312 249 172.589844 247.578125 172.882812 C 244.222656 173.566406 240.878906 174.296875 237.539062 175.082031 C 235.144531 175.644531 232.78125 176.351562 230.390625 176.933594 C 225.011719 178.246094 219.632812 179.507812 214.253906 180.808594 C 210.832031 181.636719 207.433594 182.542969 204.007812 183.339844 C 201.089844 184.027344 198.160156 184.65625 195.214844 185.238281 C 191.628906 185.941406 188.03125 186.585938 184.429688 187.191406 C 180.074219 187.914062 175.71875 188.636719 171.34375 189.226562 C 166.855469 189.835938 162.398438 190.605469 157.972656 191.601562 C 153.910156 192.515625 149.820312 193.328125 145.757812 194.246094 C 144.054688 194.625 142.386719 195.164062 140.691406 195.589844 C 139.925781 195.761719 139.15625 195.882812 138.371094 195.933594 C 137.9375 195.976562 137.375 195.988281 137.25 195.4375 C 137.125 194.886719 137.628906 194.644531 138.046875 194.496094 C 139.71875 193.910156 141.371094 193.230469 143.078125 192.816406 C 148.679688 191.472656 154.277344 190.082031 159.921875 188.984375 C 165.195312 187.949219 170.535156 187.28125 175.851562 186.410156 C 182.332031 185.355469 188.832031 184.386719 195.277344 183.136719 C 201.542969 181.925781 207.765625 180.457031 213.988281 179.015625 C 220.300781 177.558594 226.582031 175.988281 232.878906 174.488281 C 238.113281 173.242188 243.351562 172.011719 248.589844 170.839844 C 249.691406 170.589844 250.855469 170.570312 251.996094 170.539062 C 252.46875 170.527344 252.976562 170.691406 253.410156 170.898438 C 255.132812 171.746094 255.339844 173.667969 253.71875 174.667969 C 252.492188 175.421875 251.105469 175.949219 249.75 176.457031 C 242.359375 179.179688 234.773438 181.234375 227.132812 183.109375 C 225.660156 183.46875 224.195312 183.871094 222.722656 184.257812 Z M 143.824219 205.214844 L 143.910156 205.480469 C 144.753906 205.398438 145.613281 205.394531 146.429688 205.214844 C 149.449219 204.554688 152.488281 203.953125 155.453125 203.105469 C 165.226562 200.347656 174.835938 197.074219 184.40625 193.675781 C 184.890625 193.5 185.375 193.328125 185.867188 193.148438 L 185.8125 192.972656 C 183.132812 193.488281 180.433594 193.902344 177.785156 194.539062 C 170.6875 196.226562 163.597656 197.964844 156.527344 199.757812 C 152.28125 200.84375 148.210938 202.429688 144.472656 204.785156 C 144.242188 204.929688 144.039062 205.074219 143.824219 205.214844 Z M 143.824219 205.214844 " fill-opacity="1" fill-rule="nonzero"/></g></g></g></g><g fill="#000000" fill-opacity="1"><g transform="translate(86.037289, 198.537894)"><g><path d="M -6.894531 -23.515625 C -7.355469 -20.800781 -5.011719 -18.265625 -2.695312 -18.945312 C -0.289062 -19.769531 9.117188 -28.109375 12.3125 -32.347656 C 13.230469 -33.6875 14.117188 -34.644531 14.144531 -34.527344 C 14.410156 -34.464844 6.011719 -11.613281 2.886719 -8.628906 C -7.765625 1.742188 -12.9375 20.46875 -12.410156 20.59375 C -12.175781 20.535156 -11.800781 21.066406 -11.6875 21.535156 C -11.203125 23.03125 -9.976562 22.984375 -8.878906 21.355469 C -5.917969 17.171875 4.949219 -4.167969 6.441406 -7.253906 C 8.769531 -12.523438 11.457031 -12.179688 10.589844 -13.210938 L 9.675781 -12.371094 C 9.054688 -11.847656 8.949219 -12.816406 11.128906 -14.578125 C 11.746094 -15.101562 12.71875 -15.707031 12.347656 -16.730469 C 12.207031 -17.320312 11.316406 -15.863281 10.851562 -16.25 C 10.242188 -16.722656 11.929688 -18.988281 12.382812 -20.710938 C 12.992188 -23.335938 15.839844 -27.988281 16.230469 -28.949219 C 19.242188 -35.503906 18.332031 -35.160156 18.65625 -35.363281 C 19.125 -35.472656 18.964844 -37.171875 19.9375 -37.777344 C 20.761719 -38.472656 19.882812 -38.507812 21.195312 -41.304688 C 22.480469 -44.21875 21.597656 -43.757812 22.285156 -45.039062 C 22.554688 -45.972656 22.554688 -45.972656 21.621094 -46.242188 C 20.804688 -46.542969 20.660156 -46.632812 21.105469 -47.359375 C 21.433594 -48.058594 21.289062 -48.148438 20.320312 -48.039062 C 17.894531 -47.828125 17.390625 -44.234375 8.730469 -33.84375 C 6.628906 -31.230469 -3.496094 -20.738281 -3.144531 -23.921875 C -2.957031 -25.207031 -1.375 -25.835938 -1.351562 -28.320312 C -1.3125 -29.199219 -1.023438 -29.019531 -0.289062 -29.566406 C 0.0351562 -29.769531 4.769531 -35.867188 4.742188 -35.984375 C 5.097656 -36.566406 4.8125 -37.242188 4.878906 -38 C 5.007812 -39.519531 10.449219 -46.285156 12.457031 -48.257812 C 13.046875 -48.894531 12.699219 -49.308594 12.027344 -49.019531 C 8.648438 -47.589844 10.03125 -48.542969 8.652344 -48.085938 C 7.246094 -47.746094 -5.871094 -29.589844 -6.894531 -23.515625 Z M 17.03125 -33.359375 C 17.199219 -32.65625 15.246094 -29.953125 16.027344 -32.375 C 16.300781 -33.308594 16.773438 -33.917969 17.03125 -33.359375 Z M 14.726562 -27.472656 C 14.601562 -26.945312 13.8125 -26.632812 14.023438 -27.304688 C 14.144531 -27.828125 14.847656 -27.996094 14.726562 -27.472656 Z M 7.816406 -13.90625 C 7.875 -13.671875 5.984375 -11.730469 6.992188 -13.214844 C 7.554688 -13.96875 7.761719 -14.140625 7.816406 -13.90625 Z M 5.351562 -6.617188 C 5.523438 -5.914062 5.242188 -7.089844 4.195312 -4.730469 C 3.121094 -2.488281 0.808594 1.292969 0.917969 1.761719 C 1.003906 2.113281 0.0820312 3.949219 -0.09375 3.742188 C -0.382812 3.5625 -2.113281 7.203125 -2.027344 7.554688 C -1.769531 8.113281 -3.386719 9.121094 -3.011719 9.652344 C -2.609375 10.300781 -8.453125 16.417969 -5.992188 12.726562 C -5.429688 11.96875 -5.398438 11.589844 -5.921875 11.46875 C -6.332031 11.316406 -6.332031 11.316406 -5.835938 11.324219 C -4.957031 11.359375 -3.5625 8.917969 -4.148438 9.058594 C -4.707031 9.316406 -4.992188 8.640625 -4.199219 8.324219 C -3.496094 8.15625 -0.3125 2.308594 -0.722656 2.15625 C -0.894531 1.953125 -0.804688 1.804688 -0.453125 1.722656 C 0.484375 1.496094 -0.640625 -0.09375 -0.0898438 0.144531 C 0.230469 0.441406 1.210938 -1.160156 0.890625 -1.453125 C 0.453125 -1.722656 1.125 -1.511719 2.164062 -3.371094 C 2.609375 -4.101562 3.054688 -4.828125 3.171875 -4.855469 C 3.640625 -4.96875 4.925781 -7.878906 5.351562 -6.617188 Z M -1.210938 1.160156 C -1.070312 1.746094 -10.046875 18.039062 -5.925781 8.367188 C -4.339844 4.640625 -4.25 4.496094 -2.976562 2.574219 C -1.878906 0.949219 -1.351562 0.574219 -1.210938 1.160156 Z M -5.957031 14.949219 C -5.667969 15.625 -6.605469 15.847656 -6.394531 15.179688 C -6.332031 14.417969 -7.230469 16.867188 -7.433594 16.542969 C -7.515625 16.191406 -8.171875 17.589844 -8.609375 17.320312 C -8.753906 17.234375 -8.664062 17.085938 -8.429688 17.03125 C -8.195312 16.976562 -8.105469 16.828125 -8.398438 16.652344 C -8.890625 16.148438 -7.988281 16.800781 -7.539062 15.578125 C -6.945312 14.441406 -6.152344 14.128906 -5.957031 14.949219 Z M -5.957031 14.949219 "/></g></g></g><g fill="#000000" fill-opacity="1"><g transform="translate(112.997442, 192.057403)"><g><path d="M 41.402344 -83.113281 C 28.675781 -82.410156 15.757812 -76.828125 4.792969 -70.347656 C 3.378906 -69.511719 0.738281 -68.628906 -0.148438 -67.175781 C -1.070312 -65.835938 0.0820312 -63.632812 1.238281 -62.425781 C 2.835938 -60.949219 3.574219 -61.992188 4.316406 -63.039062 C 8.988281 -68.875 31.746094 -78.933594 45.222656 -78.578125 C 50.953125 -78.464844 55.902344 -75.9375 56.78125 -72.796875 C 57.574219 -70.011719 55.269531 -61.027344 52.445312 -55.757812 C 48.425781 -48.222656 39.296875 -37.71875 28.726562 -30.09375 C 25.753906 -28.015625 20.105469 -24.175781 19.636719 -24.066406 C 19.519531 -24.035156 19.496094 -24.652344 19.648438 -25.554688 C 20.136719 -27.65625 19.628906 -29.765625 20.234375 -31.898438 C 20.632812 -33.851562 23.390625 -41.460938 24.015625 -42.476562 C 26.066406 -46.320312 42.140625 -51.671875 46.527344 -51.484375 C 48.777344 -51.40625 45.351562 -54.304688 41.523438 -54.25 C 40.238281 -54.4375 39.035156 -54.273438 37.835938 -54.109375 C 27.464844 -51.863281 26.101562 -46.699219 32.5625 -59.539062 C 35.808594 -66.144531 38.839844 -71.089844 38.84375 -71.585938 C 38.789062 -72.320312 38.554688 -72.261719 39.480469 -74.097656 C 40.402344 -75.929688 40.402344 -75.929688 39.121094 -76.613281 C 37.929688 -77.445312 36.523438 -77.105469 35.425781 -75.476562 C 34.363281 -74.230469 25.558594 -57.730469 22.992188 -52.402344 C 21.175781 -48.617188 20.335938 -46.429688 18.71875 -45.421875 C -20.941406 -22.125 -2.15625 -7.417969 14.441406 -15.75 C 16.441406 -16.722656 27.9375 -23.578125 32.597656 -27.925781 C 35.273438 -29.683594 42.921875 -37.597656 44.183594 -38.023438 C 45.355469 -38.308594 47.660156 -41.09375 47.167969 -41.59375 C 46.996094 -41.800781 47.082031 -41.945312 47.492188 -41.796875 C 47.871094 -41.765625 48.078125 -41.9375 47.933594 -42.027344 C 47.441406 -42.527344 52.628906 -50.347656 48.039062 -44.160156 C 43.683594 -38.03125 36.261719 -32.277344 33.109375 -29.410156 C 28.285156 -26.265625 11.1875 -14.84375 9.214844 -16.351562 C 8.023438 -17.179688 16.445312 -20.320312 18.328125 -21.765625 C 21.597656 -24.164062 25.738281 -26.027344 25.652344 -26.378906 C 25.566406 -26.730469 33.242188 -31.425781 33.101562 -32.015625 C 33.074219 -32.132812 33.164062 -32.277344 33.488281 -32.476562 C 35.128906 -32.871094 46.019531 -43.796875 48.597656 -47.519531 C 55.328125 -57.691406 51.613281 -51.46875 52.3125 -51.140625 C 52.460938 -51.050781 53.53125 -53.292969 53.59375 -53.554688 C 53.742188 -53.964844 53.808594 -54.722656 54.105469 -55.042969 C 54.816406 -56.207031 54.332031 -54.601562 54.949219 -54.625 C 55.300781 -54.710938 55.425781 -55.734375 55.957031 -56.109375 C 56.71875 -56.539062 56.714844 -56.042969 57.199219 -57.648438 C 57.378906 -58.433594 57.941406 -59.191406 58.707031 -59.621094 C 58.675781 -59.242188 58.730469 -59.007812 58.671875 -58.746094 C 58.609375 -58.480469 58.519531 -58.335938 58.546875 -58.21875 C 58.546875 -58.21875 58.460938 -58.074219 58.460938 -58.074219 L 58.695312 -58.128906 C 58.8125 -58.160156 59.105469 -58.476562 59.34375 -59.03125 C 59.34375 -59.03125 59.316406 -59.148438 59.433594 -59.175781 C 61.46875 -64.128906 62.613281 -84.121094 41.402344 -83.113281 Z M 54.371094 -78.171875 C 52.398438 -79.679688 49.535156 -80.234375 43.164062 -80.4375 C 40.296875 -80.492188 38.484375 -80.304688 33.035156 -79.242188 C 27.730469 -78.09375 27.472656 -78.652344 32.71875 -80.035156 C 43.507812 -83.125 25.722656 -79.222656 26.308594 -79.363281 C 27.480469 -79.644531 32.761719 -81.410156 37.589844 -81.949219 C 37.589844 -81.949219 44.382812 -82.589844 43.148438 -82.046875 C 42.328125 -81.847656 49.164062 -81.261719 51.234375 -80.394531 C 55.050781 -78.957031 55.417969 -77.429688 54.371094 -78.171875 Z M 37.789062 -81.128906 C 37.789062 -81.128906 38.753906 -81.238281 39.3125 -81.496094 C 40.046875 -82.046875 36.707031 -80.992188 37.789062 -81.128906 Z M 40.980469 -81.773438 C 40.511719 -81.660156 40.542969 -81.542969 40.777344 -81.601562 C 41.535156 -81.535156 41.890625 -82.117188 40.980469 -81.773438 Z M 32.613281 -52.109375 C 34.8125 -52.761719 33.957031 -52.183594 31.703125 -51.765625 C 31.117188 -51.625 31.558594 -51.855469 32.613281 -52.109375 Z M 29.722656 -49.679688 C 33.464844 -52.6875 38.9375 -53.132812 41.019531 -53.757812 C 43.242188 -53.796875 44.671875 -53.519531 42.390625 -53.21875 C 39.753906 -52.832031 38.292969 -52.730469 38.226562 -51.96875 C 38.039062 -50.683594 28.046875 -48.40625 29.722656 -49.679688 Z M 57.359375 -55.949219 C 56.765625 -55.3125 57.496094 -54.867188 57.910156 -55.710938 C 58.238281 -56.410156 57.949219 -56.585938 57.359375 -55.949219 Z M 22.910156 -46.554688 C 22.789062 -46.027344 22.613281 -45.738281 22.464844 -45.824219 C 22.03125 -46.09375 23.425781 -48.535156 22.910156 -46.554688 Z M 44.691406 -52.410156 C 45.042969 -52.492188 45.308594 -52.433594 45.21875 -52.285156 C 45.039062 -51.996094 43.664062 -52.039062 44.691406 -52.410156 Z M 56.640625 -54.289062 C 56.378906 -54.347656 55.820312 -54.089844 55.554688 -53.65625 C 54.785156 -52.726562 52.582031 -48.476562 51.878906 -48.308594 C 51.203125 -48.019531 52.210938 -49.503906 51.742188 -49.390625 C 51.390625 -49.304688 50.199219 -47.035156 50.492188 -46.859375 C 51.21875 -46.414062 55.503906 -51.285156 55.011719 -51.789062 C 54.546875 -52.171875 56.242188 -52.332031 55.957031 -53.007812 C 55.757812 -53.828125 57.339844 -53.960938 56.640625 -54.289062 Z M -2.65625 -26.519531 C -2.5625 -27.160156 -0.105469 -30.355469 1.902344 -32.328125 C 6.121094 -36.441406 7.796875 -37.214844 10.386719 -39.328125 C 10.386719 -39.328125 17.71875 -44.933594 18.296875 -44.078125 C 18.847656 -43.34375 16.203125 -41.964844 10.757812 -38.300781 C -1.277344 -30.074219 -2.839844 -25.234375 -2.65625 -26.519531 Z M 17.246094 -31.425781 C 17.464844 -33.089844 20.335938 -43.332031 21.019531 -41.015625 C 21.101562 -40.660156 20.21875 -39.703125 20.359375 -39.117188 C 20.414062 -38.882812 20.265625 -38.476562 20.058594 -38.304688 C 19.410156 -37.898438 19.210938 -35.121094 18.824219 -34.660156 C 18.738281 -34.511719 18.527344 -33.84375 18.316406 -33.171875 C 18.066406 -31.625 17.175781 -30.167969 17.246094 -31.425781 Z M 15.503906 -23.195312 C 15.796875 -23.019531 16.003906 -23.191406 16.941406 -23.417969 C 19.3125 -23.863281 14.511719 -20.105469 8.179688 -18.582031 C 3.167969 -17.253906 -4 -16.648438 -2.320312 -21.515625 C -0.75 -26.851562 15.035156 -39.078125 16.550781 -38.453125 C 17.222656 -38.242188 12.996094 -23.832031 15.503906 -23.195312 Z M 50.269531 -45.191406 C 49.261719 -43.710938 49.347656 -43.359375 50.40625 -44.109375 C 51.144531 -44.660156 50.066406 -45.019531 50.652344 -45.160156 C 51.941406 -45.46875 52.230469 -48.390625 50.269531 -45.191406 Z M 20.53125 -35.8125 C 19.757812 -34.386719 20.285156 -34.265625 19.816406 -34.152344 C 19.347656 -34.039062 20.488281 -37.539062 20.835938 -37.125 C 20.867188 -37.007812 20.773438 -36.367188 20.53125 -35.8125 Z M 19.058594 -31.117188 C 18.433594 -30.101562 18.539062 -32.234375 19.121094 -31.878906 C 19.269531 -31.789062 19.207031 -31.527344 19.058594 -31.117188 Z M 28.808594 -26.144531 C 29.105469 -26.464844 29.894531 -26.777344 30.601562 -26.949219 C 32.09375 -27.433594 31.859375 -27.375 29.152344 -25.234375 C 27.5 -23.847656 26.179688 -23.15625 24.125 -22.414062 C 19.34375 -20.644531 27.539062 -24.722656 28.808594 -26.144531 Z M 7.082031 -16.457031 C 4.414062 -15.691406 7.742188 -15.253906 1.867188 -15.453125 C 0.375 -15.464844 -0.324219 -15.792969 -0.464844 -16.378906 C -0.550781 -16.734375 0.300781 -16.8125 3.308594 -16.667969 C 4.042969 -16.71875 5.386719 -16.796875 6.089844 -16.964844 C 7.261719 -17.246094 9.191406 -16.964844 7.082031 -16.457031 Z M 7.046875 -16.078125 C 7.398438 -16.164062 7.660156 -16.101562 7.71875 -15.867188 C 7.859375 -15.28125 5.667969 -15.625 7.046875 -16.078125 Z M 7.046875 -16.078125 "/></g></g></g><g fill="#000000" fill-opacity="1"><g transform="translate(177.584569, 176.532406)"><g><path d="M 1.757812 -19.519531 C 3.371094 -20.03125 4.753906 -20.984375 6.109375 -22.054688 C 16.117188 -29.417969 18.929688 -33.195312 22 -36.414062 L 28.140625 -42.851562 C 28.644531 -43.34375 30.738281 -45.457031 30.042969 -46.285156 C 29.871094 -46.488281 29.726562 -46.578125 29.492188 -46.523438 C 28.523438 -46.414062 27.785156 -45.367188 27.078125 -44.703125 L 24.628906 -42.5 C 23.183594 -41.285156 4.996094 -22.035156 -0.675781 -22.40625 C -4.328125 -22.644531 -3.40625 -27.578125 -0.792969 -28.578125 C 2.257812 -29.808594 13.796875 -38.039062 16.042969 -40.5625 C 18.109375 -42.792969 18.644531 -43.667969 18.664062 -45.65625 C 18.648438 -47.265625 17.414062 -49.820312 15.570312 -49.75 C 13.875 -49.589844 12.082031 -48.785156 10.671875 -47.949219 C 8.40625 -46.539062 6.398438 -44.566406 4.6875 -42.917969 C -0.265625 -38.253906 -6.820312 -28.371094 -6.164062 -23.070312 C -5.617188 -19.234375 -1.441406 -18.378906 1.757812 -19.519531 Z M 3.664062 -33.246094 C 3.464844 -33.570312 4.136719 -33.855469 4.171875 -34.234375 C 5.347656 -35.015625 4.90625 -34.785156 5.203125 -35.105469 C 5.085938 -35.074219 4.96875 -35.046875 4.941406 -35.164062 L 4.644531 -34.847656 L 4.527344 -34.816406 C 0.46875 -32.105469 0.117188 -32.019531 1.6875 -34.257812 C 5.746094 -40.070312 8.335938 -42.183594 10.75 -44.003906 C 13.460938 -46.140625 14.257812 -46.953125 14.378906 -47.476562 C 14.65625 -48.910156 15.402344 -47.351562 15.816406 -47.699219 C 15.90625 -47.84375 16.027344 -48.371094 16.257812 -47.929688 C 16.484375 -47.488281 16.539062 -46.757812 16.796875 -46.199219 C 16.910156 -45.730469 17.082031 -45.523438 16.816406 -45.085938 C 16.546875 -44.652344 15.988281 -44.394531 15.722656 -43.957031 C 15.339844 -43.492188 15.097656 -42.9375 14.6875 -42.59375 C 14.097656 -41.953125 13.214844 -41.492188 12.566406 -41.089844 C 11.921875 -40.6875 11.59375 -39.988281 10.972656 -39.46875 C 10.769531 -39.292969 9.617188 -38.398438 10.171875 -38.160156 L 10.757812 -38.300781 C 10.492188 -37.863281 9.527344 -37.753906 9.960938 -37.488281 C 9.988281 -37.371094 8.492188 -36.886719 8.640625 -36.796875 C 9.019531 -36.765625 8.957031 -36.503906 8.578125 -36.535156 C 8.199219 -36.566406 5.640625 -34.835938 5.785156 -34.746094 C 5.984375 -34.425781 5.375 -34.898438 5.28125 -34.253906 C 5.195312 -34.109375 5.222656 -33.992188 5.078125 -34.082031 C 5.046875 -34.199219 4.285156 -33.765625 4.339844 -33.53125 C 4.484375 -33.445312 4.3125 -33.648438 3.664062 -33.246094 Z M 11.40625 -38.703125 C 10.582031 -38.007812 10.5625 -39.121094 10.941406 -39.085938 C 11.203125 -39.027344 10.585938 -38.503906 11.230469 -38.910156 C 11.4375 -39.082031 11.644531 -39.257812 11.671875 -39.140625 C 11.582031 -38.992188 12.113281 -39.371094 12.257812 -39.28125 C 12.289062 -39.164062 12.289062 -39.164062 12.167969 -39.132812 C 12.023438 -39.222656 11.933594 -39.078125 12.082031 -38.988281 C 12.164062 -38.636719 11.933594 -39.078125 11.40625 -38.703125 Z M 5.78125 -34.25 C 5.867188 -34.394531 10.253906 -37.308594 10.28125 -37.191406 C 10.484375 -36.867188 5.625 -33.34375 5.78125 -34.25 Z M 5.78125 -34.25 "/></g></g></g><g fill="#000000" fill-opacity="1"><g transform="translate(204.89637, 169.967388)"><g><path d="M 28.988281 -46.03125 C 28.816406 -46.234375 28.671875 -46.324219 28.4375 -46.269531 C 27.351562 -46.132812 26.109375 -44.59375 25.3125 -43.78125 L 21.449219 -40.25 C 18.824219 -37.757812 16.289062 -35.414062 13.78125 -32.949219 C 9.886719 -29.035156 5.609375 -25.15625 0.675781 -22.980469 C -2.347656 -21.632812 -3.511719 -22.34375 -1.964844 -25.195312 C -1.371094 -26.332031 -0.980469 -27.292969 -0.792969 -28.578125 C -1.085938 -28.757812 -1.375 -28.933594 -1.460938 -29.285156 C -1.429688 -29.167969 -1.398438 -29.550781 -0.984375 -29.894531 C -0.0429688 -30.617188 -0.972656 -31.386719 -0.324219 -31.792969 C 0 -31.992188 0.40625 -31.84375 0.578125 -31.636719 C 0.925781 -31.222656 0.71875 -31.050781 1.015625 -31.371094 C 2.199219 -32.644531 1.292969 -32.800781 2.300781 -34.28125 C 7.632812 -42.011719 7.59375 -40.636719 8.21875 -42.152344 C 8.371094 -42.5625 8.167969 -42.886719 8.464844 -43.203125 C 8.9375 -43.8125 8.964844 -43.695312 9.078125 -43.226562 C 9.105469 -43.109375 9.339844 -43.167969 9.429688 -43.3125 C 10.410156 -44.910156 11.910156 -45.890625 13.292969 -46.84375 C 14.234375 -47.566406 15.386719 -48.960938 16.640625 -48.394531 C 17.078125 -48.125 17.101562 -47.511719 17.066406 -47.132812 C 16.945312 -46.605469 16.707031 -46.054688 16.558594 -45.644531 C 16.257812 -44.828125 15.839844 -43.984375 15.367188 -43.375 C 14.894531 -42.765625 14.542969 -42.679688 13.921875 -42.160156 C 12.539062 -41.207031 13.992188 -40.316406 13.109375 -39.359375 C 12.902344 -39.1875 11.3125 -38.058594 12.210938 -37.410156 C 12.359375 -37.320312 12.738281 -37.289062 12.972656 -37.34375 C 14.144531 -37.625 14.886719 -38.671875 15.652344 -39.601562 C 17.871094 -42.242188 20.792969 -45.050781 20.125 -48.859375 C 19.816406 -50.148438 19.007812 -51.441406 17.75 -51.511719 C 17.371094 -51.546875 16.902344 -51.433594 16.550781 -51.347656 C 12.503906 -50.128906 9.289062 -47 6.394531 -44.070312 C 3.269531 -41.085938 0.550781 -37.953125 -1.675781 -34.316406 C -2.921875 -32.28125 -4.023438 -30.15625 -4.863281 -27.972656 C -5.757812 -26.019531 -6.777344 -23.542969 -6.386719 -21.40625 C -6.136719 -19.855469 -4.417969 -18.902344 -3.074219 -18.976562 C -0.617188 -19.074219 1.671875 -19.871094 3.730469 -21.109375 C 4.933594 -21.769531 6.265625 -23.457031 7.671875 -23.792969 C 8.257812 -23.933594 9.261719 -24.917969 9.675781 -25.265625 C 21.679688 -36.707031 22.125 -37.4375 27.085938 -42.597656 C 27.589844 -43.089844 29.683594 -45.203125 28.988281 -46.03125 Z M 8.925781 -26.324219 C 9.046875 -26.851562 9.429688 -27.316406 9.988281 -27.574219 L 9.839844 -27.164062 C 9.929688 -27.3125 10.074219 -27.222656 10.308594 -27.277344 C 9.953125 -26.695312 9.539062 -26.351562 8.925781 -26.324219 Z M 3.78125 -23.476562 C 3.605469 -23.683594 3.785156 -23.976562 3.875 -24.121094 C 4.082031 -24.292969 4.34375 -24.234375 4.695312 -24.316406 C 4.664062 -23.9375 4.277344 -23.472656 3.78125 -23.476562 Z M 2.921875 -22.402344 C 2.71875 -22.230469 2.335938 -22.261719 1.984375 -22.179688 C 1.542969 -21.949219 1.160156 -21.484375 0.636719 -21.605469 C 0.433594 -21.929688 0.726562 -22.246094 0.933594 -22.421875 C 1.582031 -22.824219 2.257812 -23.113281 2.933594 -23.398438 L 2.84375 -23.253906 L 3.105469 -23.191406 C 3.398438 -23.011719 3.246094 -22.605469 2.921875 -22.402344 Z M 2.921875 -22.402344 "/></g></g></g><g fill="#000000" fill-opacity="1"><g transform="translate(232.325391, 163.374194)"><g><path d="M 9.464844 -53.488281 C 9.730469 -53.925781 10.316406 -54.066406 10.46875 -54.472656 C 11 -55.347656 10.652344 -55.757812 11.914062 -56.1875 C 12.707031 -56.5 13.703125 -56.492188 14.234375 -57.363281 C 14.5625 -58.0625 14.457031 -59.027344 13.847656 -59.503906 C 12.917969 -60.269531 10.660156 -59.851562 9.863281 -59.042969 C 8.773438 -57.910156 8.285156 -55.808594 8.652344 -54.285156 C 8.988281 -52.878906 8.988281 -52.878906 9.464844 -53.488281 Z M 0.015625 -21.085938 L 10.722656 -31.222656 C 14.085938 -34.261719 17.128906 -37.597656 20.167969 -40.933594 C 20.671875 -41.425781 22.882812 -43.570312 22.191406 -44.394531 C 22.015625 -44.601562 21.871094 -44.691406 21.636719 -44.632812 C 20.289062 -44.558594 19.132812 -42.667969 18.046875 -42.035156 C 16.191406 -40.96875 14.746094 -39.257812 13.238281 -37.78125 C 9.640625 -34.1875 1.113281 -25.8125 -2.148438 -24.410156 C -2.746094 -25.875 1.664062 -31.773438 0.96875 -32.597656 C 0.796875 -32.804688 0.945312 -33.210938 1.152344 -33.386719 C 1.914062 -33.816406 3.078125 -36.207031 2.9375 -36.792969 C 2.851562 -37.144531 3.179688 -37.84375 3.535156 -38.421875 C 4.425781 -39.878906 3.609375 -40.175781 4.546875 -40.402344 C 5.253906 -40.570312 6.148438 -42.523438 5.890625 -43.082031 C 5.777344 -43.550781 5.546875 -43.992188 5.578125 -44.371094 C 5.671875 -45.011719 6.402344 -45.066406 6.515625 -44.597656 C 6.664062 -44.507812 6.601562 -44.246094 6.628906 -44.128906 C 6.804688 -43.921875 7.242188 -44.152344 7.449219 -44.324219 C 10.023438 -47.546875 7.722656 -48.359375 9.070312 -48.929688 C 10.421875 -49.503906 10.253906 -50.207031 8.972656 -50.890625 C 7.253906 -51.84375 6.226562 -51.472656 4.976562 -48.9375 C 2.597656 -44.398438 -1.964844 -34.992188 -5.371094 -26.980469 C -6.714844 -23.808594 -6.777344 -23.542969 -6.441406 -21.640625 C -5.765625 -18.828125 -3.640625 -17.726562 0.015625 -21.085938 Z M 0.015625 -21.085938 "/></g></g></g><g fill="#000000" fill-opacity="1"><g transform="translate(251.666368, 158.725146)"><g><path d="M 15.394531 -7.667969 C 17.035156 -8.0625 10.378906 -9.4375 18.105469 -26.300781 C 18.703125 -27.4375 19.738281 -28.800781 20.042969 -30.113281 C 20.015625 -30.230469 26.273438 -49.59375 35.46875 -63.957031 C 37.457031 -67.039062 35.019531 -65.832031 33.785156 -68.386719 C 33.699219 -68.738281 33.027344 -68.949219 32.433594 -67.8125 C 28.605469 -61.5625 23.445312 -50.523438 22.742188 -50.355469 C 22.417969 -50.15625 20.902344 -47.683594 20.992188 -47.828125 C 19.710938 -48.511719 18.933594 -49.6875 15.949219 -49.714844 C 7.382812 -49.765625 -4.359375 -32.0625 -6.734375 -24.917969 C -8.894531 -18.941406 -5.558594 -12.800781 1.605469 -19.109375 C 3.875 -21.019531 15.078125 -34.253906 15.96875 -35.707031 C 17.15625 -37.480469 17.203125 -36.253906 16.039062 -33.863281 C 15.507812 -32.992188 8.757812 -17.730469 11.011719 -11.453125 C 11.523438 -9.839844 13.285156 -7.160156 15.394531 -7.667969 Z M -3.09375 -20.089844 C -4.789062 -19.929688 -4.570312 -21.59375 -4.328125 -22.644531 C -4.175781 -23.054688 -3.925781 -25.097656 -3.339844 -25.238281 C -3.222656 -25.265625 -3.128906 -25.910156 -2.945312 -26.695312 C -2.78125 -28.597656 -2.527344 -27.542969 -1.335938 -29.8125 C 2.058594 -36.828125 16.480469 -53.191406 18.375 -46.332031 C 18.972656 -44.367188 18.542969 -45.128906 15.90625 -41.644531 C 11.644531 -36.15625 7.121094 -30.730469 2.570312 -25.417969 C 1.03125 -23.5625 -1.628906 -20.191406 -3.09375 -20.089844 Z M 21.757812 -48.257812 C 22.175781 -49.105469 22.847656 -49.390625 22.460938 -48.429688 C 22.042969 -47.585938 21.339844 -47.414062 21.757812 -48.257812 Z M 17.675781 -43.0625 C 18.179688 -44.050781 19.386719 -44.714844 18.496094 -43.257812 C 17.691406 -41.949219 17.105469 -41.808594 17.675781 -43.0625 Z M 16.894531 -41.140625 C 16.300781 -40.003906 16.292969 -42.109375 16.988281 -41.78125 C 17.105469 -41.808594 17.074219 -41.429688 16.894531 -41.140625 Z M 11.675781 -16.941406 C 10.105469 -17.804688 20.046875 -43.507812 20.785156 -40.957031 C 20.867188 -40.605469 14.421875 -26.160156 14.796875 -25.628906 C 14.824219 -25.511719 14.675781 -25.105469 14.378906 -24.785156 C 13.90625 -24.175781 13.90625 -24.175781 14.492188 -24.316406 C 14.960938 -24.429688 15.132812 -24.222656 15.304688 -23.519531 C 15.558594 -22.464844 15 -22.207031 14.628906 -23.234375 C 14.460938 -23.9375 14.460938 -23.9375 13.835938 -22.917969 C 12.914062 -21.085938 12.402344 -16.496094 11.675781 -16.941406 Z M 21.457031 -37.648438 C 20.875 -38.003906 22.027344 -39.394531 22.226562 -38.574219 C 22.335938 -38.105469 21.746094 -37.46875 21.457031 -37.648438 Z M 18.699219 -30.535156 C 18.242188 -28.316406 17.152344 -30.785156 18.296875 -31.183594 C 18.882812 -31.324219 18.910156 -31.207031 18.699219 -30.535156 Z M 16.65625 -27.6875 C 16.59375 -26.929688 16.011719 -27.285156 16.25 -27.839844 C 16.460938 -28.507812 16.722656 -28.449219 16.65625 -27.6875 Z M 15.261719 -25.246094 C 15.148438 -25.714844 15.851562 -25.882812 15.90625 -25.648438 C 15.964844 -25.414062 15.402344 -24.660156 15.261719 -25.246094 Z M 13.816406 -20.929688 C 14.089844 -21.863281 15.410156 -22.554688 15.375 -21.675781 C 15.371094 -21.179688 13.152344 -18.539062 13.816406 -20.929688 Z M 14.210938 -19.289062 C 13.945312 -18.851562 12.6875 -18.921875 13.714844 -19.292969 C 14.039062 -19.496094 14.300781 -19.433594 14.210938 -19.289062 Z M 14.210938 -19.289062 "/></g></g></g><g fill="#000000" fill-opacity="1"><g transform="translate(283.315237, 151.117615)"><g><path d="M 1.757812 -19.519531 C 3.371094 -20.03125 4.753906 -20.984375 6.109375 -22.054688 C 16.117188 -29.417969 18.929688 -33.195312 22 -36.414062 L 28.140625 -42.851562 C 28.644531 -43.34375 30.738281 -45.457031 30.042969 -46.285156 C 29.871094 -46.488281 29.726562 -46.578125 29.492188 -46.523438 C 28.523438 -46.414062 27.785156 -45.367188 27.078125 -44.703125 L 24.628906 -42.5 C 23.183594 -41.285156 4.996094 -22.035156 -0.675781 -22.40625 C -4.328125 -22.644531 -3.40625 -27.578125 -0.792969 -28.578125 C 2.257812 -29.808594 13.796875 -38.039062 16.042969 -40.5625 C 18.109375 -42.792969 18.644531 -43.667969 18.664062 -45.65625 C 18.648438 -47.265625 17.414062 -49.820312 15.570312 -49.75 C 13.875 -49.589844 12.082031 -48.785156 10.671875 -47.949219 C 8.40625 -46.539062 6.398438 -44.566406 4.6875 -42.917969 C -0.265625 -38.253906 -6.820312 -28.371094 -6.164062 -23.070312 C -5.617188 -19.234375 -1.441406 -18.378906 1.757812 -19.519531 Z M 3.664062 -33.246094 C 3.464844 -33.570312 4.136719 -33.855469 4.171875 -34.234375 C 5.347656 -35.015625 4.90625 -34.785156 5.203125 -35.105469 C 5.085938 -35.074219 4.96875 -35.046875 4.941406 -35.164062 L 4.644531 -34.847656 L 4.527344 -34.816406 C 0.46875 -32.105469 0.117188 -32.019531 1.6875 -34.257812 C 5.746094 -40.070312 8.335938 -42.183594 10.75 -44.003906 C 13.460938 -46.140625 14.257812 -46.953125 14.378906 -47.476562 C 14.65625 -48.910156 15.402344 -47.351562 15.816406 -47.699219 C 15.90625 -47.84375 16.027344 -48.371094 16.257812 -47.929688 C 16.484375 -47.488281 16.539062 -46.757812 16.796875 -46.199219 C 16.910156 -45.730469 17.082031 -45.523438 16.816406 -45.085938 C 16.546875 -44.652344 15.988281 -44.394531 15.722656 -43.957031 C 15.339844 -43.492188 15.097656 -42.9375 14.6875 -42.59375 C 14.097656 -41.953125 13.214844 -41.492188 12.566406 -41.089844 C 11.921875 -40.6875 11.59375 -39.988281 10.972656 -39.46875 C 10.769531 -39.292969 9.617188 -38.398438 10.171875 -38.160156 L 10.757812 -38.300781 C 10.492188 -37.863281 9.527344 -37.753906 9.960938 -37.488281 C 9.988281 -37.371094 8.492188 -36.886719 8.640625 -36.796875 C 9.019531 -36.765625 8.957031 -36.503906 8.578125 -36.535156 C 8.199219 -36.566406 5.640625 -34.835938 5.785156 -34.746094 C 5.984375 -34.425781 5.375 -34.898438 5.28125 -34.253906 C 5.195312 -34.109375 5.222656 -33.992188 5.078125 -34.082031 C 5.046875 -34.199219 4.285156 -33.765625 4.339844 -33.53125 C 4.484375 -33.445312 4.3125 -33.648438 3.664062 -33.246094 Z M 11.40625 -38.703125 C 10.582031 -38.007812 10.5625 -39.121094 10.941406 -39.085938 C 11.203125 -39.027344 10.585938 -38.503906 11.230469 -38.910156 C 11.4375 -39.082031 11.644531 -39.257812 11.671875 -39.140625 C 11.582031 -38.992188 12.113281 -39.371094 12.257812 -39.28125 C 12.289062 -39.164062 12.289062 -39.164062 12.167969 -39.132812 C 12.023438 -39.222656 11.933594 -39.078125 12.082031 -38.988281 C 12.164062 -38.636719 11.933594 -39.078125 11.40625 -38.703125 Z M 5.78125 -34.25 C 5.867188 -34.394531 10.253906 -37.308594 10.28125 -37.191406 C 10.484375 -36.867188 5.625 -33.34375 5.78125 -34.25 Z M 5.78125 -34.25 "/></g></g></g></svg>